<svg xmlns="http://www.w3.org/2000/svg" xmlns:xlink="http://www.w3.org/1999/xlink" xmlns:lucid="lucid" width="1288.73" height="1761.85"><g transform="translate(508.73208325100495 660.3501616030436)" lucid:page-tab-id="0_0"><path d="M-221.78-606.53c36.76 0 66.56 31.4 66.56 70.16s-29.8 70.17-66.56 70.17h-199.68c-36.76 0-66.56-31.4-66.56-70.17 0-38.75 29.8-70.16 66.56-70.16z" stroke="#000" stroke-width="1.5" fill="#ffd9d9"/><use xlink:href="#a" transform="matrix(1,0,0,1,-483.0222925923023,-601.5298259471349) translate(85.08524691358033 72.39930555555551)"/><path d="M-221.78-387.18c36.76 0 66.56 31.42 66.56 70.17 0 38.74-29.8 70.15-66.56 70.15h-199.68c-36.76 0-66.56-31.4-66.56-70.16s29.8-70.18 66.56-70.18z" stroke="#000" stroke-width="1.5" fill="#ffd9d9"/><use xlink:href="#b" transform="matrix(1,0,0,1,-483.0222925923023,-382.17585461912915) translate(108.48030864197537 72.39930555555551)"/><path d="M-221.78-172.8c36.76 0 66.56 31.4 66.56 70.16 0 38.75-29.8 70.16-66.56 70.16h-199.68c-36.76 0-66.56-31.4-66.56-70.16 0-38.75 29.8-70.17 66.56-70.17z" stroke="#000" stroke-width="1.5" fill="#ffd9d9"/><use xlink:href="#c" transform="matrix(1,0,0,1,-483.0222925923023,-167.80707152483885) translate(106.01117283950624 72.39930555555551)"/><path d="M-222.5 259.6c36.77 0 66.57 31.42 66.57 70.17s-29.8 70.16-66.56 70.16h-199.67c-36.76 0-66.56-31.4-66.56-70.16 0-38.75 29.8-70.17 66.56-70.17z" stroke="#000" stroke-width="1.5" fill="#ffd9d9"/><use xlink:href="#d" transform="matrix(1,0,0,1,-483.73208325100495,264.6018521514505) translate(61.56672839506184 72.39930555555551)"/><path d="M-222.5 473.3c36.77 0 66.57 31.4 66.57 70.16 0 38.75-29.8 70.16-66.56 70.16h-199.67c-36.76 0-66.56-31.4-66.56-70.16s29.8-70.17 66.56-70.17z" stroke="#000" stroke-width="1.5" fill="#ffd9d9"/><use xlink:href="#e" transform="matrix(1,0,0,1,-483.73208325100495,478.2912263426799) translate(76.50500000000011 72.39930555555551)"/><path d="M-222.5 688.83c36.77 0 66.57 31.4 66.57 70.16 0 38.75-29.8 70.16-66.56 70.16h-199.67c-36.76 0-66.56-31.4-66.56-70.16s29.8-70.17 66.56-70.17z" stroke="#000" stroke-width="1.5" fill="#ffd9d9"/><use xlink:href="#f" transform="matrix(1,0,0,1,-483.7320832510047,693.8301905305045) translate(60.45561728395072 72.39930555555551)"/><path d="M-221.78 910.12c36.76 0 66.56 31.4 66.56 70.16 0 38.75-29.8 70.17-66.56 70.17h-199.68c-36.76 0-66.56-31.42-66.56-70.17s29.8-70.16 66.56-70.16z" stroke="#000" stroke-width="1.5" fill="#ffd9d9"/><use xlink:href="#g" transform="matrix(1,0,0,1,-483.0222925923023,915.1175461945146) translate(101.13462962962971 72.39930555555551)"/><path d="M-72.02-634.35a6 6 0 0 1 6-6H754a6 6 0 0 1 6 6v195.97a6 6 0 0 1-6 6H-66a6 6 0 0 1-6.02-6z" fill="#fff"/><path d="M-50.83-640.35h15.2m7.58 0h15.18m7.6 0H9.9m7.6 0h15.2m7.58 0h15.2m7.58 0h15.2m7.58 0h15.2m7.58 0h15.18m7.6 0h15.18m7.6 0h15.18m7.6 0h15.18m7.6 0h15.18m7.6 0h15.17m7.6 0h15.17m7.6 0h15.18m7.6 0h15.18m7.6 0h15.18m7.6 0h15.2m7.58 0h15.18m7.6 0h15.18m7.6 0h15.18m7.6 0h15.18m7.6 0h15.18m7.6 0h15.17m7.6 0h15.18m7.6 0h15.18m7.6 0h15.2m7.58 0h15.2m7.58 0h15.18m7.6 0h15.18m7.6 0h15.18m7.6 0h15.18m7.6 0h15.18m7.6 0h15.18m7.6 0h15.18m7.6 0H754l.94.07.9.22.88.36.8.5.72.6.6.72.5.8.37.88.23.9.07.95v7.26m0 7.27v14.5m0 7.27v14.52m0 7.25v14.53m0 7.26v14.5m0 7.26v14.52m0 7.26v14.5m0 7.27v14.53m0 7.26v14.5m0 7.26v7.26l-.07.94-.22.9-.35.88-.5.8-.6.72-.72.6-.8.5-.88.37-.9.22-.95.07h-7.6m-7.58 0h-15.2m-7.58 0h-15.2m-7.58 0h-15.2m-7.58 0h-15.2m-7.58 0h-15.18m-7.6 0h-15.18m-7.6 0h-15.18m-7.6 0H564.2m-7.6 0H541.4m-7.6 0h-15.17m-7.6 0h-15.18m-7.6 0h-15.18m-7.6 0H450.3m-7.6 0h-15.2m-7.58 0h-15.2m-7.58 0h-15.18m-7.6 0h-15.18m-7.6 0H336.4m-7.6 0h-15.18m-7.6 0h-15.18m-7.6 0h-15.18m-7.6 0H245.3m-7.6 0h-15.2m-7.58 0h-15.2m-7.58 0h-15.2m-7.58 0h-15.2m-7.58 0H131.4m-7.6 0h-15.18m-7.6 0H85.84m-7.6 0H63.07m-7.6 0H40.3m-7.6 0H17.5m-7.6 0H-5.26m-7.6 0h-15.18m-7.6 0h-15.18m-7.6 0h-7.6l-.92-.07-.92-.22-.87-.36-.8-.5-.72-.6-.6-.72-.5-.8-.36-.88-.22-.9-.08-.95v-7.26m0-7.26v-14.5m0-7.27v-14.52m0-7.25v-14.5m0-7.27v-14.52m0-7.25v-14.5m0-7.27v-14.5m0-7.27v-14.52m0-7.26v-14.5m0-7.27v-7.25l.08-.94.22-.9.36-.87.5-.8.6-.72.72-.6.8-.5.87-.36.92-.22.94-.07h7.58" stroke="#000" stroke-width="1.5" fill="none"/><path d="M11.2-640.35v207.97m665.6-207.97v207.97" fill="none"/><path d="M11.2-640.35v7.7m0 7.7v15.4m0 7.7v15.42m0 7.7v15.4m0 7.7v15.4m0 7.72v15.4m0 7.7v15.4m0 7.7v15.4m0 7.7v15.4m0 7.72v7.7m665.6-207.97v7.7m0 7.7v15.4m0 7.7v15.42m0 7.7v15.4m0 7.7v15.4m0 7.72v15.4m0 7.7v15.4m0 7.7v15.4m0 7.7v15.4m0 7.72v7.7" stroke="#000" stroke-width="1.5" fill="none"/><use xlink:href="#h" transform="matrix(1,0,0,1,36.98699598782328,-635.3501616030436) translate(59.78395061728423 54.5555555555556)"/><use xlink:href="#i" transform="matrix(1,0,0,1,36.98699598782328,-635.3501616030436) translate(99.29012345679035 54.5555555555556)"/><use xlink:href="#j" transform="matrix(1,0,0,1,36.98699598782328,-635.3501616030436) translate(298.7962962962963 54.5555555555556)"/><use xlink:href="#k" transform="matrix(1,0,0,1,36.98699598782328,-635.3501616030436) translate(417.1913580246912 54.5555555555556)"/><use xlink:href="#l" transform="matrix(1,0,0,1,36.98699598782328,-635.3501616030436) translate(68.36419753086446 107.88888888888887)"/><use xlink:href="#m" transform="matrix(1,0,0,1,36.98699598782328,-635.3501616030436) translate(250.95679012345684 107.88888888888887)"/><use xlink:href="#n" transform="matrix(1,0,0,1,36.98699598782328,-635.3501616030436) translate(315.03086419753083 107.88888888888887)"/><use xlink:href="#o" transform="matrix(1,0,0,1,36.98699598782328,-635.3501616030436) translate(507.2530864197529 107.88888888888887)"/><use xlink:href="#p" transform="matrix(1,0,0,1,36.98699598782328,-635.3501616030436) translate(128.79629629629648 161.22222222222214)"/><use xlink:href="#q" transform="matrix(1,0,0,1,36.98699598782328,-635.3501616030436) translate(328.42592592592587 161.22222222222214)"/><path d="M-72.02-418.74a6 6 0 0 1 6-6H754a6 6 0 0 1 6 6v201.02a6 6 0 0 1-6 6H-66a6 6 0 0 1-6.02-6z" fill="#fff"/><path d="M-50.83-424.74h15.2m7.58 0h15.18m7.6 0H9.9m7.6 0h15.2m7.58 0h15.2m7.58 0h15.2m7.58 0h15.2m7.58 0h15.18m7.6 0h15.18m7.6 0h15.18m7.6 0h15.18m7.6 0h15.18m7.6 0h15.17m7.6 0h15.17m7.6 0h15.18m7.6 0h15.18m7.6 0h15.18m7.6 0h15.2m7.58 0h15.18m7.6 0h15.18m7.6 0h15.18m7.6 0h15.18m7.6 0h15.18m7.6 0h15.17m7.6 0h15.18m7.6 0h15.18m7.6 0h15.2m7.58 0h15.2m7.58 0h15.18m7.6 0h15.18m7.6 0h15.18m7.6 0h15.18m7.6 0h15.18m7.6 0h15.18m7.6 0h15.18m7.6 0H754l.94.07.9.22.88.36.8.5.72.62.6.7.5.82.37.87.23.92.07.94v7.44m0 7.45v14.9m0 7.44v14.88m0 7.44v14.9m0 7.44v14.9m0 7.43v14.88m0 7.45v14.9m0 7.43v14.9m0 7.44v14.9m0 7.43v7.45l-.07.94-.22.9-.35.88-.5.8-.6.72-.72.6-.8.5-.88.36-.9.22-.95.08h-7.6m-7.58 0h-15.2m-7.58 0h-15.2m-7.58 0h-15.2m-7.58 0h-15.2m-7.58 0h-15.18m-7.6 0h-15.18m-7.6 0h-15.18m-7.6 0H564.2m-7.6 0H541.4m-7.6 0h-15.17m-7.6 0h-15.18m-7.6 0h-15.18m-7.6 0H450.3m-7.6 0h-15.2m-7.58 0h-15.2m-7.58 0h-15.18m-7.6 0h-15.18m-7.6 0H336.4m-7.6 0h-15.18m-7.6 0h-15.18m-7.6 0h-15.18m-7.6 0H245.3m-7.6 0h-15.2m-7.58 0h-15.2m-7.58 0h-15.2m-7.58 0h-15.2m-7.58 0H131.4m-7.6 0h-15.18m-7.6 0H85.84m-7.6 0H63.07m-7.6 0H40.3m-7.6 0H17.5m-7.6 0H-5.26m-7.6 0h-15.18m-7.6 0h-15.18m-7.6 0h-7.6l-.92-.08-.92-.22-.87-.36-.8-.5-.72-.6-.6-.72-.5-.8-.36-.87-.22-.9-.08-.95v-7.45m0-7.44v-14.9m0-7.45v-14.9m0-7.43v-14.9m0-7.44v-14.9m0-7.43v-14.9m0-7.44v-14.88m0-7.44v-14.9m0-7.44v-14.9m0-7.44v-7.44l.08-.94.22-.9.36-.88.5-.8.6-.72.72-.6.8-.5.87-.37.92-.22.94-.07h7.58" stroke="#000" stroke-width="1.5" fill="none"/><path d="M11.2-424.74v213.02m665.6-213.02v213.02" fill="none"/><path d="M11.2-424.74v7.9m0 7.88v15.78m0 7.9v15.77m0 7.88v15.77m0 7.9v15.77m0 7.9v15.77m0 7.88v15.78m0 7.9v15.77m0 7.9v15.77m0 7.9v7.88m665.6-213.02v7.9m0 7.88v15.78m0 7.9v15.77m0 7.88v15.77m0 7.9v15.77m0 7.9v15.77m0 7.88v15.78m0 7.9v15.77m0 7.9v15.77m0 7.9v7.88" stroke="#000" stroke-width="1.5" fill="none"/><use xlink:href="#h" transform="matrix(1,0,0,1,36.98699598782373,-419.74032314055364) translate(65.83333333333363 57.5555555555556)"/><use xlink:href="#r" transform="matrix(1,0,0,1,36.98699598782373,-419.74032314055364) translate(105.33950617283975 57.5555555555556)"/><use xlink:href="#s" transform="matrix(1,0,0,1,36.98699598782373,-419.74032314055364) translate(319.6604938271605 57.5555555555556)"/><use xlink:href="#t" transform="matrix(1,0,0,1,36.98699598782373,-419.74032314055364) translate(450.40123456790104 57.5555555555556)"/><use xlink:href="#u" transform="matrix(1,0,0,1,36.98699598782373,-419.74032314055364) translate(53.4876543209879 110.88888888888887)"/><use xlink:href="#v" transform="matrix(1,0,0,1,36.98699598782373,-419.74032314055364) translate(332.0061728395061 110.88888888888887)"/><use xlink:href="#w" transform="matrix(1,0,0,1,36.98699598782373,-419.74032314055364) translate(524.4753086419751 110.88888888888887)"/><use xlink:href="#x" transform="matrix(1,0,0,1,36.98699598782373,-419.74032314055364) translate(39.90740740740773 164.22222222222214)"/><use xlink:href="#y" transform="matrix(1,0,0,1,36.98699598782373,-419.74032314055364) translate(197.68518518518533 164.22222222222214)"/><use xlink:href="#z" transform="matrix(1,0,0,1,36.98699598782373,-419.74032314055364) translate(249.41358024691368 164.22222222222214)"/><use xlink:href="#A" transform="matrix(1,0,0,1,36.98699598782373,-419.74032314055364) translate(417.1913580246912 164.22222222222214)"/><use xlink:href="#B" transform="matrix(1,0,0,1,36.98699598782373,-419.74032314055364) translate(478.9197530864195 164.22222222222214)"/><path d="M-72.02-198.82a6 6 0 0 1 6-6H754a6 6 0 0 1 6 6v190.8a6 6 0 0 1-6 6l-820 .02a6 6 0 0 1-6.02-6z" fill="#fff"/><path d="M-50.83-204.82h15.2m7.58 0h15.18m7.6 0H9.9m7.6 0h15.2m7.58 0h15.2m7.58 0h15.2m7.58 0h15.2m7.58 0h15.18m7.6 0h15.18m7.6 0h15.18m7.6 0h15.18m7.6 0h15.18m7.6 0h15.17m7.6 0h15.17m7.6 0h15.18m7.6 0h15.18m7.6 0h15.18m7.6 0h15.2m7.58 0h15.18m7.6 0h15.18m7.6 0h15.18m7.6 0h15.18m7.6 0h15.18m7.6 0h15.17m7.6 0h15.18m7.6 0h15.18m7.6 0h15.2m7.58 0h15.2m7.58 0h15.18m7.6 0h15.18m7.6 0h15.18m7.6 0h15.18m7.6 0h15.18m7.6 0h15.18m7.6 0h15.18m7.6 0H754l.94.08.9.22.88.36.8.5.72.6.6.72.5.8.37.87.23.9.07.95v7.95m0 7.95v15.9m0 7.96v15.9m0 7.95v15.9m0 7.94v15.9m0 7.95v15.9m0 7.94v15.9m0 7.95v15.9m0 7.94V-8l-.07.93-.22.92-.35.87-.5.8-.6.72-.72.6-.8.5-.88.36-.9.22L754-2h-7.6m-7.58 0h-15.2m-7.58 0h-15.2m-7.58 0h-15.2m-7.58 0h-15.2m-7.58 0h-15.18m-7.6 0h-15.18m-7.6 0h-15.18m-7.6 0H564.2m-7.6 0H541.4m-7.6 0h-15.17m-7.6 0h-15.18m-7.6 0h-15.18m-7.6 0H450.3m-7.6 0h-15.2m-7.58 0h-15.2m-7.58 0h-15.18m-7.6 0h-15.18m-7.6 0H336.4m-7.6 0h-15.18m-7.6 0h-15.18m-7.6 0h-15.18m-7.6 0H245.3m-7.6 0h-15.2m-7.58 0h-15.2m-7.58 0h-15.2m-7.58 0h-15.2m-7.58 0H131.4m-7.6 0h-15.18m-7.6 0H85.84m-7.6 0H63.07m-7.6 0H40.3m-7.6 0H17.5M9.9-2H-5.26m-7.6 0h-15.18m-7.6 0h-15.18m-7.6 0h-7.6l-.92-.08-.92-.22-.87-.36-.8-.5-.72-.6-.6-.72-.5-.8-.36-.87-.22-.92-.08-.94v-7.96m0-7.95v-15.9m0-7.96v-15.9m0-7.95v-15.9m0-7.96v-15.9m0-7.95v-15.9m0-7.96v-15.9m0-7.96v-15.9m0-7.95v-7.95l.08-.94.22-.9.36-.88.5-.8.6-.72.72-.6.8-.5.87-.36.92-.22.94-.08h7.58" stroke="#000" stroke-width="1.5" fill="none"/><path d="M11.2-204.82v202.8m665.6-202.8v202.8" fill="none"/><path d="M11.2-204.82v7.5m0 7.53v15.03m0 7.5v15.03m0 7.52v15.02m0 7.5v15.03m0 7.5v15.04m0 7.5v15.03m0 7.5v15.04m0 7.5v15.03m0 7.5V-2m665.6-202.82v7.5m0 7.53v15.03m0 7.5v15.03m0 7.52v15.02m0 7.5v15.03m0 7.5v15.04m0 7.5v15.03m0 7.5v15.04m0 7.5v15.03m0 7.5V-2" stroke="#000" stroke-width="1.5" fill="none"/><use xlink:href="#h" transform="matrix(1,0,0,1,36.98699598782328,-199.8177416871239) translate(25.09259259259295 52.0555555555556)"/><use xlink:href="#C" transform="matrix(1,0,0,1,36.98699598782328,-199.8177416871239) translate(64.59876543209907 52.0555555555556)"/><use xlink:href="#D" transform="matrix(1,0,0,1,36.98699598782328,-199.8177416871239) translate(195.2160493827162 52.0555555555556)"/><use xlink:href="#E" transform="matrix(1,0,0,1,36.98699598782328,-199.8177416871239) translate(244.59876543209884 52.0555555555556)"/><use xlink:href="#F" transform="matrix(1,0,0,1,36.98699598782328,-199.8177416871239) translate(385.21604938271594 52.0555555555556)"/><use xlink:href="#G" transform="matrix(1,0,0,1,36.98699598782328,-199.8177416871239) translate(471.63580246913557 52.0555555555556)"/><use xlink:href="#H" transform="matrix(1,0,0,1,36.98699598782328,-199.8177416871239) translate(540.5246913580244 52.0555555555556)"/><use xlink:href="#I" transform="matrix(1,0,0,1,36.98699598782328,-199.8177416871239) translate(49.907407407407675 105.38888888888887)"/><use xlink:href="#J" transform="matrix(1,0,0,1,36.98699598782328,-199.8177416871239) translate(293.98148148148147 105.38888888888887)"/><use xlink:href="#K" transform="matrix(1,0,0,1,36.98699598782328,-199.8177416871239) translate(402.4999999999999 105.38888888888887)"/><use xlink:href="#L" transform="matrix(1,0,0,1,36.98699598782328,-199.8177416871239) translate(493.6111111111109 105.38888888888887)"/><use xlink:href="#M" transform="matrix(1,0,0,1,36.98699598782328,-199.8177416871239) translate(169.53703703703718 158.72222222222214)"/><use xlink:href="#N" transform="matrix(1,0,0,1,36.98699598782328,-199.8177416871239) translate(334.4753086419753 158.72222222222214)"/><path d="M-72.02 229.48a6 6 0 0 1 6-6H754a6 6 0 0 1 6 6v195.97a6 6 0 0 1-6 6H-66a6 6 0 0 1-6.02-6z" fill="#fff"/><path d="M-50.83 223.48h15.2m7.58 0h15.18m7.6 0H9.9m7.6 0h15.2m7.58 0h15.2m7.58 0h15.2m7.58 0h15.2m7.58 0h15.18m7.6 0h15.18m7.6 0h15.18m7.6 0h15.18m7.6 0h15.18m7.6 0h15.17m7.6 0h15.17m7.6 0h15.18m7.6 0h15.18m7.6 0h15.18m7.6 0h15.2m7.58 0h15.18m7.6 0h15.18m7.6 0h15.18m7.6 0h15.18m7.6 0h15.18m7.6 0h15.17m7.6 0h15.18m7.6 0h15.18m7.6 0h15.2m7.58 0h15.2m7.58 0h15.18m7.6 0h15.18m7.6 0h15.18m7.6 0h15.18m7.6 0h15.18m7.6 0h15.18m7.6 0h15.18m7.6 0H754l.94.07.9.22.88.36.8.5.72.6.6.72.5.8.37.87.23.92.07.94v7.26m0 7.25v14.5m0 7.27v14.52m0 7.24v14.52m0 7.26v14.5m0 7.27v14.5m0 7.27v14.5m0 7.27v14.52m0 7.25v14.53m0 7.26v7.25l-.07.94-.22.9-.35.87-.5.8-.6.72-.72.6-.8.5-.88.35-.9.22-.95.08h-7.6m-7.58 0h-15.2m-7.58 0h-15.2m-7.58 0h-15.2m-7.58 0h-15.2m-7.58 0h-15.18m-7.6 0h-15.18m-7.6 0h-15.18m-7.6 0H564.2m-7.6 0H541.4m-7.6 0h-15.17m-7.6 0h-15.18m-7.6 0h-15.18m-7.6 0H450.3m-7.6 0h-15.2m-7.58 0h-15.2m-7.58 0h-15.18m-7.6 0h-15.18m-7.6 0H336.4m-7.6 0h-15.18m-7.6 0h-15.18m-7.6 0h-15.18m-7.6 0H245.3m-7.6 0h-15.2m-7.58 0h-15.2m-7.58 0h-15.2m-7.58 0h-15.2m-7.58 0H131.4m-7.6 0h-15.18m-7.6 0H85.84m-7.6 0H63.07m-7.6 0H40.3m-7.6 0H17.5m-7.6 0H-5.26m-7.6 0h-15.18m-7.6 0h-15.18m-7.6 0h-7.6l-.92-.08-.92-.22-.87-.36-.8-.5-.72-.6-.6-.73-.5-.8-.36-.87-.22-.9-.08-.95v-7.26m0-7.27v-14.5m0-7.27v-14.52m0-7.26v-14.5m0-7.27v-14.5m0-7.27v-14.5m0-7.27v-14.52m0-7.25v-14.53m0-7.26V244m0-7.26v-7.26l.08-.94.22-.92.36-.87.5-.8.6-.7.72-.63.8-.5.87-.35.92-.22.94-.07h7.58" stroke="#000" stroke-width="1.5" fill="none"/><path d="M11.2 223.48v207.97m665.6-207.97v207.97" fill="none"/><path d="M11.2 223.48v7.7m0 7.7v15.4m0 7.7v15.42m0 7.7v15.4m0 7.7v15.4m0 7.7v15.42m0 7.7v15.4m0 7.7v15.42m0 7.7v15.4m0 7.7v7.7M676.8 223.5v7.7m0 7.7v15.4m0 7.7v15.42m0 7.7v15.4m0 7.7v15.4m0 7.7v15.42m0 7.7v15.4m0 7.7v15.42m0 7.7v15.4m0 7.7v7.7" stroke="#000" stroke-width="1.5" fill="none"/><use xlink:href="#h" transform="matrix(1,0,0,1,36.98699598782328,228.4776702192477) translate(15.216049382716335 54.5555555555556)"/><use xlink:href="#O" transform="matrix(1,0,0,1,36.98699598782328,228.4776702192477) translate(54.72222222222246 54.5555555555556)"/><use xlink:href="#P" transform="matrix(1,0,0,1,36.98699598782328,228.4776702192477) translate(133.48765432098782 54.5555555555556)"/><use xlink:href="#y" transform="matrix(1,0,0,1,36.98699598782328,228.4776702192477) translate(254.47530864197535 54.5555555555556)"/><use xlink:href="#Q" transform="matrix(1,0,0,1,36.98699598782328,228.4776702192477) translate(306.2037037037037 54.5555555555556)"/><use xlink:href="#R" transform="matrix(1,0,0,1,36.98699598782328,228.4776702192477) translate(525.7098765432097 54.5555555555556)"/><use xlink:href="#S" transform="matrix(1,0,0,1,36.98699598782328,228.4776702192477) translate(37.808641975308944 107.88888888888887)"/><use xlink:href="#T" transform="matrix(1,0,0,1,36.98699598782328,228.4776702192477) translate(82.12962962962987 107.88888888888887)"/><use xlink:href="#U" transform="matrix(1,0,0,1,36.98699598782328,228.4776702192477) translate(192.99382716049394 107.88888888888887)"/><use xlink:href="#V" transform="matrix(1,0,0,1,36.98699598782328,228.4776702192477) translate(239.783950617284 107.88888888888887)"/><use xlink:href="#W" transform="matrix(1,0,0,1,36.98699598782328,228.4776702192477) translate(424.35185185185173 107.88888888888887)"/><use xlink:href="#X" transform="matrix(1,0,0,1,36.98699598782328,228.4776702192477) translate(473.7345679012344 107.88888888888887)"/><use xlink:href="#Y" transform="matrix(1,0,0,1,36.98699598782328,228.4776702192477) translate(510.7716049382714 107.88888888888887)"/><use xlink:href="#Z" transform="matrix(1,0,0,1,36.98699598782328,228.4776702192477) translate(211.26543209876553 161.22222222222214)"/><path d="M-72.72 445.47a6 6 0 0 1 6-6h820a6 6 0 0 1 6 6v195.36a6 6 0 0 1-6 6h-820a6 6 0 0 1-6-6z" fill="#fff"/><path d="M-51.54 439.47h15.2m7.58 0h15.18m7.6 0H9.2m7.6 0h15.18m7.6 0h15.18m7.6 0h15.18m7.6 0h15.17m7.6 0h15.2m7.6 0h15.17m7.6 0h15.18m7.6 0h15.18m7.6 0h15.18m7.6 0H237m7.58 0h15.18m7.6 0h15.18m7.6 0h15.18m7.6 0h15.18m7.6 0h15.18m7.6 0h15.17m7.6 0h15.18m7.6 0h15.18m7.6 0H442m7.58 0h15.2m7.58 0h15.2m7.58 0h15.18m7.6 0h15.18m7.6 0h15.18m7.6 0h15.18m7.6 0h15.18m7.6 0h15.17m7.6 0H647m7.6 0h15.17m7.6 0h15.18m7.6 0h15.18m7.6 0h15.18m7.6 0h7.6l.93.07.9.22.88.37.82.5.7.6.62.7.5.82.36.87.22.9.07.95v7.24m0 7.24v14.47m0 7.25v14.47m0 7.24v14.47m0 7.23v14.48m0 7.23v14.47m0 7.24v14.47m0 7.23v14.48m0 7.23v14.46m0 7.24v7.23l-.08.94-.22.92-.36.86-.5.8-.6.72-.72.6-.8.5-.88.36-.9.22-.95.07h-7.6m-7.6 0h-15.18m-7.6 0h-15.18m-7.6 0h-15.18m-7.6 0H654.6m-7.6 0h-15.2m-7.6 0h-15.17m-7.6 0h-15.18m-7.6 0h-15.18m-7.6 0H540.7m-7.6 0h-15.18m-7.6 0h-15.18m-7.6 0h-15.18m-7.6 0H449.6m-7.6 0H426.8m-7.6 0h-15.18m-7.6 0h-15.17m-7.6 0h-15.18m-7.6 0H335.7m-7.6 0h-15.2m-7.58 0h-15.2m-7.58 0h-15.2m-7.58 0h-15.18m-7.6 0H221.8m-7.6 0h-15.18m-7.6 0h-15.18m-7.6 0h-15.17m-7.6 0H130.7m-7.6 0h-15.2m-7.6 0H85.14m-7.6 0H62.36m-7.6 0H39.58m-7.6 0H16.8m-7.6 0H-5.98m-7.6 0h-15.18m-7.6 0h-15.18m-7.6 0h-7.58l-.94-.07-.92-.22-.87-.36-.8-.5-.72-.6-.6-.72-.5-.8-.36-.87-.22-.93-.07-.94v-7.23m0-7.24V611.9m0-7.24v-14.48m0-7.23v-14.47m0-7.24v-14.47m0-7.24v-14.47m0-7.23v-14.47m0-7.24v-14.47m0-7.24v-14.46m0-7.23v-7.23l.07-.94.22-.9.36-.88.5-.8.6-.72.72-.6.8-.5.87-.37.92-.2.94-.1h7.6" stroke="#000" stroke-width="1.5" fill="none"/><path d="M10.48 439.47v207.36m665.6-207.36v207.36" fill="none"/><path d="M10.48 439.47v7.68m0 7.68v15.36m0 7.67v15.36m0 7.68v15.37m0 7.68v15.36m0 7.7v15.35m0 7.68v15.36m0 7.67v15.36m0 7.68v15.37m0 7.68v7.68m665.6-207.36v7.68m0 7.68v15.36m0 7.67v15.36m0 7.68v15.37m0 7.68v15.36m0 7.7v15.35m0 7.68v15.36m0 7.67v15.36m0 7.68v15.37m0 7.68v7.68" stroke="#000" stroke-width="1.5" fill="none"/><use xlink:href="#h" transform="matrix(1,0,0,1,36.277205329120605,444.4708906867712) translate(9.22839506172869 54.5555555555556)"/><use xlink:href="#aa" transform="matrix(1,0,0,1,36.277205329120605,444.4708906867712) translate(48.73456790123482 54.5555555555556)"/><use xlink:href="#y" transform="matrix(1,0,0,1,36.277205329120605,444.4708906867712) translate(314.9074074074074 54.5555555555556)"/><use xlink:href="#O" transform="matrix(1,0,0,1,36.277205329120605,444.4708906867712) translate(366.63580246913574 54.5555555555556)"/><use xlink:href="#P" transform="matrix(1,0,0,1,36.277205329120605,444.4708906867712) translate(445.4012345679011 54.5555555555556)"/><use xlink:href="#o" transform="matrix(1,0,0,1,36.277205329120605,444.4708906867712) translate(566.3888888888887 54.5555555555556)"/><use xlink:href="#Q" transform="matrix(1,0,0,1,36.277205329120605,444.4708906867712) translate(7.808641975309001 107.88888888888887)"/><use xlink:href="#F" transform="matrix(1,0,0,1,36.277205329120605,444.4708906867712) translate(227.31481481481495 107.88888888888887)"/><use xlink:href="#S" transform="matrix(1,0,0,1,36.277205329120605,444.4708906867712) translate(313.73456790123464 107.88888888888887)"/><use xlink:href="#ab" transform="matrix(1,0,0,1,36.277205329120605,444.4708906867712) translate(358.0555555555556 107.88888888888887)"/><use xlink:href="#ac" transform="matrix(1,0,0,1,36.277205329120605,444.4708906867712) translate(572.7469135802467 107.88888888888887)"/><use xlink:href="#ad" transform="matrix(1,0,0,1,36.277205329120605,444.4708906867712) translate(205.58641975308655 161.22222222222214)"/><path d="M-72.72 659.82a6 6 0 0 1 6-6h820a6 6 0 0 1 6 6v198.35a6 6 0 0 1-6 6h-820a6 6 0 0 1-6-6z" fill="#fff"/><path d="M-51.54 653.82h15.2m7.58 0h15.18m7.6 0H9.2m7.6 0h15.18m7.6 0h15.18m7.6 0h15.18m7.6 0h15.17m7.6 0h15.2m7.6 0h15.17m7.6 0h15.18m7.6 0h15.18m7.6 0h15.18m7.6 0H237m7.58 0h15.18m7.6 0h15.18m7.6 0h15.18m7.6 0h15.18m7.6 0h15.18m7.6 0h15.17m7.6 0h15.18m7.6 0h15.18m7.6 0H442m7.58 0h15.2m7.58 0h15.2m7.58 0h15.18m7.6 0h15.18m7.6 0h15.18m7.6 0h15.18m7.6 0h15.18m7.6 0h15.17m7.6 0H647m7.6 0h15.17m7.6 0h15.18m7.6 0h15.18m7.6 0h15.18m7.6 0h7.6l.93.08.9.22.88.36.82.5.7.6.62.72.5.8.36.87.22.92.07.92v7.35m0 7.35v14.7m0 7.33v14.7m0 7.34v14.68m0 7.35v14.7m0 7.34v14.7m0 7.34v14.7m0 7.34v14.7m0 7.34v14.7m0 7.34v7.35l-.08.93-.22.92-.36.87-.5.8-.6.7-.72.62-.8.5-.88.35-.9.22-.95.07h-7.6m-7.6 0h-15.18m-7.6 0h-15.18m-7.6 0h-15.18m-7.6 0H654.6m-7.6 0h-15.2m-7.6 0h-15.17m-7.6 0h-15.18m-7.6 0h-15.18m-7.6 0H540.7m-7.6 0h-15.18m-7.6 0h-15.18m-7.6 0h-15.18m-7.6 0H449.6m-7.6 0H426.8m-7.6 0h-15.18m-7.6 0h-15.17m-7.6 0h-15.18m-7.6 0H335.7m-7.6 0h-15.2m-7.58 0h-15.2m-7.58 0h-15.2m-7.58 0h-15.18m-7.6 0H221.8m-7.6 0h-15.18m-7.6 0h-15.18m-7.6 0h-15.17m-7.6 0H130.7m-7.6 0h-15.2m-7.6 0H85.14m-7.6 0H62.36m-7.6 0H39.58m-7.6 0H16.8m-7.6 0H-5.98m-7.6 0h-15.18m-7.6 0h-15.18m-7.6 0h-7.58l-.94-.08-.92-.23-.87-.36-.8-.48-.72-.6-.6-.73-.5-.8-.36-.88-.22-.92-.07-.93v-7.35m0-7.35v-14.7m0-7.33v-14.7m0-7.34v-14.7m0-7.34v-14.7m0-7.34v-14.7m0-7.34v-14.7m0-7.33v-14.7m0-7.34v-14.68m0-7.35v-7.35l.07-.93.22-.93.36-.87.5-.8.6-.72.72-.6.8-.5.87-.36.92-.22.94-.08h7.6" stroke="#000" stroke-width="1.5" fill="none"/><path d="M10.48 653.82v210.35m665.6-210.35v210.35" fill="none"/><path d="M10.48 653.82v7.8m0 7.78V685m0 7.78v15.58m0 7.8v15.57m0 7.8v15.57m0 7.8v15.57m0 7.8v15.57m0 7.8v15.57m0 7.8v15.6m0 7.77v7.8m665.6-210.35v7.8m0 7.78V685m0 7.78v15.58m0 7.8v15.57m0 7.8v15.57m0 7.8v15.57m0 7.8v15.57m0 7.8v15.57m0 7.8v15.6m0 7.77v7.8" stroke="#000" stroke-width="1.5" fill="none"/><use xlink:href="#h" transform="matrix(1,0,0,1,36.27720532912106,658.8241315814705) translate(15.216049382716335 82.72222222222224)"/><use xlink:href="#O" transform="matrix(1,0,0,1,36.27720532912106,658.8241315814705) translate(54.72222222222246 82.72222222222224)"/><use xlink:href="#P" transform="matrix(1,0,0,1,36.27720532912106,658.8241315814705) translate(133.48765432098782 82.72222222222224)"/><use xlink:href="#y" transform="matrix(1,0,0,1,36.27720532912106,658.8241315814705) translate(254.47530864197535 82.72222222222224)"/><use xlink:href="#Q" transform="matrix(1,0,0,1,36.27720532912106,658.8241315814705) translate(306.2037037037037 82.72222222222224)"/><use xlink:href="#R" transform="matrix(1,0,0,1,36.27720532912106,658.8241315814705) translate(525.7098765432097 82.72222222222224)"/><use xlink:href="#S" transform="matrix(1,0,0,1,36.27720532912106,658.8241315814705) translate(30.277777777778056 136.05555555555551)"/><use xlink:href="#ae" transform="matrix(1,0,0,1,36.27720532912106,658.8241315814705) translate(74.59876543209899 136.05555555555551)"/><use xlink:href="#m" transform="matrix(1,0,0,1,36.27720532912106,658.8241315814705) translate(262.0061728395062 136.05555555555551)"/><use xlink:href="#af" transform="matrix(1,0,0,1,36.27720532912106,658.8241315814705) translate(326.0802469135802 136.05555555555551)"/><use xlink:href="#ag" transform="matrix(1,0,0,1,36.27720532912106,658.8241315814705) translate(424.5987654320986 136.05555555555551)"/><path d="M-321.62-464.7v76.02" stroke="#000" stroke-width="1.5" fill="none"/><path d="M-320.87-464.68h-1.5v-.77h1.5zM-320.87-387.93h-1.5v-.76h1.5z" stroke="#000" stroke-width=".05"/><path d="M-321.62-245.35v71.04" stroke="#000" stroke-width="1.5" fill="none"/><path d="M-320.87-245.33h-1.5v-.77h1.5zM-320.87-173.56h-1.5v-.77h1.5z" stroke="#000" stroke-width=".05"/><path d="M-322.33 401.43v70.36" stroke="#000" stroke-width="1.5" fill="none"/><path d="M-321.58 401.45h-1.5v-.77h1.5zM-321.58 472.54h-1.5v-.77h1.5z" stroke="#000" stroke-width=".05"/><path d="M-322.33 614.37" stroke="#000" fill="none"/><path stroke="#000" stroke-width=".05"/><path stroke="#000" stroke-width=".05"/><path d="M-322.33 687.33v-72.2" stroke="#000" stroke-width="1.5" fill="none"/><path d="M-321.58 688.08h-1.5v-.77h1.5zM-321.58 615.14h-1.5v-.77h1.5z" stroke="#000" stroke-width=".05"/><path d="M-321.62 908.62V870a.35.35 0 0 0-.35-.36.35.35 0 0 1-.36-.36v-38.62" stroke="#000" stroke-width="1.5" fill="none"/><path d="M-320.87 909.37h-1.5v-.77h1.5zM-321.58 830.68h-1.5v-.77h1.5z" stroke="#000" stroke-width=".05"/><path d="M-153.72-536.37h80.2" stroke="#000" stroke-width="1.5" fill="none"/><path d="M-153.7-535.6h-.8l.03-.75v-.26l-.02-.5h.8zM-72.77-535.6h-.76v-1.5h.77z" stroke="#000" stroke-width=".05"/><path d="M-153.72-317h80.2" stroke="#000" stroke-width="1.5" fill="none"/><path d="M-153.7-316.26h-.8l.03-.74v-.26l-.02-.5h.8zM-72.77-316.26h-.76v-1.5h.77z" stroke="#000" stroke-width=".05"/><path d="M-154.43 329.77h80.91" stroke="#000" stroke-width="1.5" fill="none"/><path d="M-154.4 330.52h-.8l.02-.74v-.26l-.02-.5h.8zM-72.77 330.52h-.76v-1.5h.77z" stroke="#000" stroke-width=".05"/><path d="M-154.43 543.46h80.2" stroke="#000" stroke-width="1.5" fill="none"/><path d="M-154.4 544.2h-.8l.02-.73v-.26l-.02-.5h.8zM-73.47 544.2h-.77v-1.5h.77z" stroke="#000" stroke-width=".05"/><path d="M-154.43 759h80.2" stroke="#000" stroke-width="1.5" fill="none"/><path d="M-154.4 759.75h-.8l.02-.74v-.25l-.02-.5h.8zM-73.47 759.75h-.77v-1.5h.77z" stroke="#000" stroke-width=".05"/><path d="M-153.72 980.28h79.75" stroke="#000" stroke-width="1.5" fill="none"/><path d="M-153.7 981.03h-.8l.03-.74v-.26l-.02-.5h.8z" stroke="#000" stroke-width=".05"/><path d="M-74 980.28h.78" stroke="#000" stroke-width="1.5" fill="none"/><path d="M-222.5 41.56c36.77 0 66.57 31.42 66.57 70.17s-29.8 70.16-66.56 70.16h-199.67c-36.76 0-66.56-31.42-66.56-70.17s29.8-70.17 66.56-70.17z" stroke="#000" stroke-width="1.5" fill="#ffd9d9"/><g><use xlink:href="#ah" transform="matrix(1,0,0,1,-483.73208325100495,46.56171156945145) translate(98.66549382716057 72.39930555555551)"/></g><path d="M-72.02 12.48a6 6 0 0 1 6-6H754a6 6 0 0 1 6 6v198.5a6 6 0 0 1-6 6H-66a6 6 0 0 1-6.02-6z" fill="#fff"/><path d="M-50.83 6.48h15.2m7.58 0h15.18m7.6 0H9.9m7.6 0h15.2m7.58 0h15.2m7.58 0h15.2m7.58 0h15.2m7.58 0h15.18m7.6 0h15.18m7.6 0h15.18m7.6 0h15.18m7.6 0h15.18m7.6 0h15.17m7.6 0h15.17m7.6 0h15.18m7.6 0h15.18m7.6 0h15.18m7.6 0h15.2m7.58 0h15.18m7.6 0h15.18m7.6 0h15.18m7.6 0h15.18m7.6 0h15.18m7.6 0h15.17m7.6 0h15.18m7.6 0h15.18m7.6 0h15.2m7.58 0h15.2m7.58 0h15.18m7.6 0h15.18m7.6 0h15.18m7.6 0h15.18m7.6 0h15.18m7.6 0h15.18m7.6 0h15.18m7.6 0H754l.94.07.9.22.88.36.8.5.72.6.6.72.5.8.37.88.23.9.07.95v7.35m0 7.35v14.7m0 7.36v14.7m0 7.35V86m0 7.35v14.7m0 7.35v14.7m0 7.36v14.7m0 7.35v14.72m0 7.35v14.7m0 7.35v7.35l-.07.94-.22.93-.35.87-.5.8-.6.72-.72.6-.8.5-.88.36-.9.22-.95.07h-7.6m-7.58 0h-15.2m-7.58 0h-15.2m-7.58 0h-15.2m-7.58 0h-15.2m-7.58 0h-15.18m-7.6 0h-15.18m-7.6 0h-15.18m-7.6 0H564.2m-7.6 0H541.4m-7.6 0h-15.17m-7.6 0h-15.18m-7.6 0h-15.18m-7.6 0H450.3m-7.6 0h-15.2m-7.58 0h-15.2m-7.58 0h-15.18m-7.6 0h-15.18m-7.6 0H336.4m-7.6 0h-15.18m-7.6 0h-15.18m-7.6 0h-15.18m-7.6 0H245.3m-7.6 0h-15.2m-7.58 0h-15.2m-7.58 0h-15.2m-7.58 0h-15.2m-7.58 0H131.4m-7.6 0h-15.18m-7.6 0H85.84m-7.6 0H63.07m-7.6 0H40.3m-7.6 0H17.5m-7.6 0H-5.26m-7.6 0h-15.18m-7.6 0h-15.18m-7.6 0h-7.6l-.92-.07-.92-.22-.87-.36-.8-.5-.72-.6-.6-.72-.5-.8-.36-.87-.22-.92-.08-.93v-7.35m0-7.35v-14.7m0-7.35v-14.7m0-7.36v-14.7m0-7.35v-14.7m0-7.35v-14.7m0-7.35V71.3m0-7.36v-14.7m0-7.35V27.17m0-7.35v-7.35l.08-.94.22-.9.36-.88.5-.8.6-.72.72-.62.8-.5.87-.35.92-.22.94-.07h7.58" stroke="#000" stroke-width="1.5" fill="none"/><path d="M11.2 6.48v210.5M676.8 6.47v210.5" fill="none"/><path d="M11.2 6.48v7.8m0 7.8v15.58m0 7.8v15.6m0 7.8v15.58m0 7.8v15.6m0 7.78v15.6m0 7.8v15.58m0 7.8V178m0 7.8v15.58m0 7.8v7.8M676.8 6.47v7.8m0 7.8v15.58m0 7.8v15.6m0 7.8v15.58m0 7.8v15.6m0 7.78v15.6m0 7.8v15.58m0 7.8V178m0 7.8v15.58m0 7.8v7.8" stroke="#000" stroke-width="1.5" fill="none"/><g><use xlink:href="#h" transform="matrix(1,0,0,1,36.98699598782419,11.479353784425967) translate(57.1296296296299 56.0555555555556)"/><use xlink:href="#ai" transform="matrix(1,0,0,1,36.98699598782419,11.479353784425967) translate(96.63580246913602 56.0555555555556)"/><use xlink:href="#D" transform="matrix(1,0,0,1,36.98699598782419,11.479353784425967) translate(293.7962962962963 56.0555555555556)"/><use xlink:href="#E" transform="matrix(1,0,0,1,36.98699598782419,11.479353784425967) translate(343.179012345679 56.0555555555556)"/><use xlink:href="#R" transform="matrix(1,0,0,1,36.98699598782419,11.479353784425967) translate(483.7962962962961 56.0555555555556)"/><use xlink:href="#aj" transform="matrix(1,0,0,1,36.98699598782419,11.479353784425967) translate(17.746913580247224 109.38888888888887)"/><use xlink:href="#ak" transform="matrix(1,0,0,1,36.98699598782419,11.479353784425967) translate(246.75925925925932 109.38888888888887)"/><use xlink:href="#al" transform="matrix(1,0,0,1,36.98699598782419,11.479353784425967) translate(365.2777777777777 109.38888888888887)"/><use xlink:href="#X" transform="matrix(1,0,0,1,36.98699598782419,11.479353784425967) translate(427.006172839506 109.38888888888887)"/><use xlink:href="#am" transform="matrix(1,0,0,1,36.98699598782419,11.479353784425967) translate(464.043209876543 109.38888888888887)"/><use xlink:href="#y" transform="matrix(1,0,0,1,36.98699598782419,11.479353784425967) translate(153.8580246913582 162.72222222222214)"/><use xlink:href="#an" transform="matrix(1,0,0,1,36.98699598782419,11.479353784425967) translate(205.58641975308655 162.72222222222214)"/><use xlink:href="#ao" transform="matrix(1,0,0,1,36.98699598782419,11.479353784425967) translate(355.95679012345676 162.72222222222214)"/></g><path d="M-322.33 40.06v-71.04" stroke="#000" stroke-width="1.5" fill="none"/><path d="M-321.58 40.8h-1.5v-.76h1.5zM-321.58-30.96h-1.5v-.77h1.5z" stroke="#000" stroke-width=".05"/><path d="M-322.33 258.1v-74.7" stroke="#000" stroke-width="1.5" fill="none"/><path d="M-321.58 258.85h-1.5v-.77h1.5zM-321.58 183.4h-1.5v-.76h1.5z" stroke="#000" stroke-width=".05"/><path d="M-154.43 111.73h80.92" stroke="#000" stroke-width="1.5" fill="none"/><path d="M-154.4 112.48h-.8l.02-.74v-.26l-.02-.5h.8zM-72.77 112.48h-.76v-1.5h.77z" stroke="#000" stroke-width=".05"/><path d="M-153.72-102.64h80.2" stroke="#000" stroke-width="1.5" fill="none"/><path d="M-153.7-101.9h-.8l.03-.73v-.26l-.02-.5h.8zM-72.77-101.9h-.77v-1.5h.78z" stroke="#000" stroke-width=".05"/><path d="M-72.98 877.16a6 6 0 0 1 6-6h820.02a6 6 0 0 1 6 6v198.34a6 6 0 0 1-6 6H-66.98a6 6 0 0 1-6-6z" fill="#fff"/><path d="M-51.8 871.16h15.2m7.6 0h15.17m7.6 0H8.95m7.6 0h15.18m7.6 0H54.5m7.6 0h15.18m7.6 0h15.18m7.6 0h15.18m7.6 0h15.18m7.6 0h15.18m7.6 0h15.18m7.6 0h15.17m7.6 0h15.18m7.6 0h15.18m7.6 0h15.2m7.58 0h15.2m7.58 0h15.2m7.58 0h15.18m7.6 0h15.18m7.6 0h15.18m7.6 0h15.18m7.6 0h15.18m7.6 0h15.17m7.6 0h15.2m7.58 0h15.2m7.58 0h15.2m7.58 0h15.2m7.58 0h15.18m7.6 0h15.18m7.6 0h15.18m7.6 0h15.18m7.6 0h15.18m7.6 0h15.18m7.6 0h15.18m7.6 0h15.17m7.6 0h7.6l.93.07.9.22.88.36.8.5.72.6.6.73.5.8.36.87.22.92.08.94v7.34m0 7.35v14.7m0 7.34v14.68m0 7.34v14.7m0 7.34v14.7m0 7.34v14.7m0 7.34v14.7m0 7.34v14.7m0 7.33v14.7m0 7.35v7.35l-.08.94-.22.9-.36.88-.5.8-.6.72-.7.6-.82.5-.87.36-.92.22-.94.08h-7.6m-7.6 0h-15.17m-7.6 0H699.9m-7.6 0h-15.2m-7.58 0h-15.2m-7.58 0h-15.2m-7.58 0h-15.18m-7.6 0H586m-7.6 0h-15.18m-7.6 0h-15.18m-7.6 0h-15.18m-7.6 0H494.9m-7.6 0h-15.17m-7.6 0h-15.17m-7.6 0h-15.18m-7.6 0h-15.18m-7.6 0H381m-7.6 0h-15.18m-7.6 0h-15.18m-7.6 0h-15.18m-7.6 0H289.9m-7.6 0H267.1m-7.6 0h-15.18m-7.6 0h-15.17m-7.6 0h-15.18m-7.6 0H176m-7.6 0h-15.2m-7.58 0h-15.2m-7.58 0h-15.18m-7.6 0H84.88m-7.6 0H62.1m-7.6 0H39.33m-7.6 0H16.55m-7.6 0H-6.22m-7.6 0H-29m-7.6 0h-15.2m-7.58 0h-7.6l-.94-.08-.9-.22-.88-.36-.8-.5-.72-.6-.6-.72-.5-.8-.36-.87-.22-.9-.08-.95v-7.35m0-7.35v-14.7m0-7.33v-14.7m0-7.34v-14.7m0-7.34V980m0-7.35v-14.7m0-7.33v-14.7m0-7.34v-14.7m0-7.34v-14.7m0-7.34v-7.34l.08-.94.22-.92.36-.87.5-.8.6-.72.72-.6.8-.5.87-.35.9-.22.95-.07h7.6" stroke="#000" stroke-width="1.5" fill="none"/><path d="M10.22 871.16v210.34m665.62-210.34v210.34" fill="none"/><path d="M10.22 871.16v7.8m0 7.78v15.58m0 7.8v15.57m0 7.78v15.58m0 7.8v15.57m0 7.8v15.57m0 7.8v15.57m0 7.8v15.58m0 7.8v15.57m0 7.8v7.78m665.62-210.34v7.8m0 7.78v15.58m0 7.8v15.57m0 7.78v15.58m0 7.8v15.57m0 7.8v15.57m0 7.8v15.57m0 7.8v15.58m0 7.8v15.57m0 7.8v7.78" stroke="#000" stroke-width="1.5" fill="none"/><g><use xlink:href="#h" transform="matrix(1,0,0,1,36.02520910188913,876.1558796776885) translate(111.38888888888911 56.0555555555556)"/><use xlink:href="#j" transform="matrix(1,0,0,1,36.02520910188913,876.1558796776885) translate(150.89506172839523 56.0555555555556)"/><use xlink:href="#l" transform="matrix(1,0,0,1,36.02520910188913,876.1558796776885) translate(269.2901234567902 56.0555555555556)"/><use xlink:href="#ap" transform="matrix(1,0,0,1,36.02520910188913,876.1558796776885) translate(451.88271604938257 56.0555555555556)"/><use xlink:href="#aq" transform="matrix(1,0,0,1,36.02520910188913,876.1558796776885) translate(1.6975308641978017 109.38888888888887)"/><use xlink:href="#ar" transform="matrix(1,0,0,1,36.02520910188913,876.1558796776885) translate(228.61111111111114 109.38888888888887)"/><use xlink:href="#as" transform="matrix(1,0,0,1,36.02520910188913,876.1558796776885) translate(315.03086419753083 109.38888888888887)"/><use xlink:href="#at" transform="matrix(1,0,0,1,36.02520910188913,876.1558796776885) translate(242.19135802469145 162.72222222222214)"/></g><path d="M-153.72-536.37h72.75" stroke="#000" stroke-width="1.5" fill="none"/><path d="M-153.7-535.6h-.8l.03-.75v-.26l-.02-.5h.8z" stroke="#000" stroke-width=".05"/><path d="M-81-536.37h.78" stroke="#000" stroke-width="1.5" fill="none"/><defs><path d="M63-220v92h138v28H63V0H30v-248h175v28H63" id="au"/><path d="M100-194c63 0 86 42 84 106H49c0 40 14 67 53 68 26 1 43-12 49-29l28 8c-11 28-37 45-77 45C44 4 14-33 15-96c1-61 26-98 85-98zm52 81c6-60-76-77-97-28-3 7-6 17-6 28h103" id="av"/><path d="M141-36C126-15 110 5 73 4 37 3 15-17 15-53c-1-64 63-63 125-63 3-35-9-54-41-54-24 1-41 7-42 31l-33-3c5-37 33-52 76-52 45 0 72 20 72 64v82c-1 20 7 32 28 27v20c-31 9-61-2-59-35zM48-53c0 20 12 33 32 33 41-3 63-29 60-74-43 2-92-5-92 41" id="aw"/><path d="M59-47c-2 24 18 29 38 22v24C64 9 27 4 27-40v-127H5v-23h24l9-43h21v43h35v23H59v120" id="ax"/><path d="M84 4C-5 8 30-112 23-190h32v120c0 31 7 50 39 49 72-2 45-101 50-169h31l1 190h-30c-1-10 1-25-2-33-11 22-28 36-60 37" id="ay"/><path d="M114-163C36-179 61-72 57 0H25l-1-190h30c1 12-1 29 2 39 6-27 23-49 58-41v29" id="az"/><g id="a"><use transform="matrix(0.12345679012345664,0,0,0.12345679012345664,0,0)" xlink:href="#au"/><use transform="matrix(0.12345679012345664,0,0,0.12345679012345664,27.037037037037006,0)" xlink:href="#av"/><use transform="matrix(0.12345679012345664,0,0,0.12345679012345664,51.728395061728335,0)" xlink:href="#aw"/><use transform="matrix(0.12345679012345664,0,0,0.12345679012345664,76.41975308641966,0)" xlink:href="#ax"/><use transform="matrix(0.12345679012345664,0,0,0.12345679012345664,88.76543209876533,0)" xlink:href="#ay"/><use transform="matrix(0.12345679012345664,0,0,0.12345679012345664,113.45679012345666,0)" xlink:href="#az"/><use transform="matrix(0.12345679012345664,0,0,0.12345679012345664,128.148148148148,0)" xlink:href="#av"/></g><path d="M185-189c-5-48-123-54-124 2 14 75 158 14 163 119 3 78-121 87-175 55-17-10-28-26-33-46l33-7c5 56 141 63 141-1 0-78-155-14-162-118-5-82 145-84 179-34 5 7 8 16 11 25" id="aA"/><path d="M106-169C34-169 62-67 57 0H25v-261h32l-1 103c12-21 28-36 61-36 89 0 53 116 60 194h-32v-121c2-32-8-49-39-48" id="aB"/><path d="M100-194c62-1 85 37 85 99 1 63-27 99-86 99S16-35 15-95c0-66 28-99 85-99zM99-20c44 1 53-31 53-75 0-43-8-75-51-75s-53 32-53 75 10 74 51 75" id="aC"/><g id="b"><use transform="matrix(0.12345679012345664,0,0,0.12345679012345664,0,0)" xlink:href="#aA"/><use transform="matrix(0.12345679012345664,0,0,0.12345679012345664,29.629629629629594,0)" xlink:href="#aB"/><use transform="matrix(0.12345679012345664,0,0,0.12345679012345664,54.32098765432092,0)" xlink:href="#aC"/><use transform="matrix(0.12345679012345664,0,0,0.12345679012345664,79.01234567901226,0)" xlink:href="#az"/><use transform="matrix(0.12345679012345664,0,0,0.12345679012345664,93.7037037037036,0)" xlink:href="#ax"/></g><path d="M206 0h-36l-40-164L89 0H53L-1-190h32L70-26l43-164h34l41 164 42-164h31" id="aD"/><g id="c"><use transform="matrix(0.12345679012345664,0,0,0.12345679012345664,0,0)" xlink:href="#aA"/><use transform="matrix(0.12345679012345664,0,0,0.12345679012345664,29.629629629629594,0)" xlink:href="#aB"/><use transform="matrix(0.12345679012345664,0,0,0.12345679012345664,54.32098765432092,0)" xlink:href="#aC"/><use transform="matrix(0.12345679012345664,0,0,0.12345679012345664,79.01234567901226,0)" xlink:href="#aD"/></g><path d="M160-131c35 5 61 23 61 61C221 17 115-2 30 0v-248c76 3 177-17 177 60 0 33-19 50-47 57zm-97-11c50-1 110 9 110-42 0-47-63-36-110-37v79zm0 115c55-2 124 14 124-45 0-56-70-42-124-44v89" id="aE"/><path d="M85-194c31 0 48 13 60 33l-1-100h32l1 261h-30c-2-10 0-23-3-31C134-8 116 4 85 4 32 4 16-35 15-94c0-66 23-100 70-100zm9 24c-40 0-46 34-46 75 0 40 6 74 45 74 42 0 51-32 51-76 0-42-9-74-50-73" id="aF"/><path d="M96-169c-40 0-48 33-48 73s9 75 48 75c24 0 41-14 43-38l32 2c-6 37-31 61-74 61-59 0-76-41-82-99-10-93 101-131 147-64 4 7 5 14 7 22l-32 3c-4-21-16-35-41-35" id="aG"/><path d="M135-143c-3-34-86-38-87 0 15 53 115 12 119 90S17 21 10-45l28-5c4 36 97 45 98 0-10-56-113-15-118-90-4-57 82-63 122-42 12 7 21 19 24 35" id="aH"/><g id="d"><use transform="matrix(0.12345679012345664,0,0,0.12345679012345664,0,0)" xlink:href="#aE"/><use transform="matrix(0.12345679012345664,0,0,0.12345679012345664,29.629629629629594,0)" xlink:href="#az"/><use transform="matrix(0.12345679012345664,0,0,0.12345679012345664,44.32098765432094,0)" xlink:href="#aC"/><use transform="matrix(0.12345679012345664,0,0,0.12345679012345664,69.01234567901227,0)" xlink:href="#aw"/><use transform="matrix(0.12345679012345664,0,0,0.12345679012345664,93.7037037037036,0)" xlink:href="#aF"/><use transform="matrix(0.12345679012345664,0,0,0.12345679012345664,118.39506172839492,0)" xlink:href="#aG"/><use transform="matrix(0.12345679012345664,0,0,0.12345679012345664,140.61728395061712,0)" xlink:href="#aw"/><use transform="matrix(0.12345679012345664,0,0,0.12345679012345664,165.30864197530846,0)" xlink:href="#aH"/><use transform="matrix(0.12345679012345664,0,0,0.12345679012345664,187.53086419753066,0)" xlink:href="#ax"/></g><path d="M30-248c87 1 191-15 191 75 0 78-77 80-158 76V0H30v-248zm33 125c57 0 124 11 124-50 0-59-68-47-124-48v98" id="aI"/><path d="M177-190C167-65 218 103 67 71c-23-6-38-20-44-43l32-5c15 47 100 32 89-28v-30C133-14 115 1 83 1 29 1 15-40 15-95c0-56 16-97 71-98 29-1 48 16 59 35 1-10 0-23 2-32h30zM94-22c36 0 50-32 50-73 0-42-14-75-50-75-39 0-46 34-46 75s6 73 46 73" id="aJ"/><path d="M210-169c-67 3-38 105-44 169h-31v-121c0-29-5-50-35-48C34-165 62-65 56 0H25l-1-190h30c1 10-1 24 2 32 10-44 99-50 107 0 11-21 27-35 58-36 85-2 47 119 55 194h-31v-121c0-29-5-49-35-48" id="aK"/><g id="e"><use transform="matrix(0.12345679012345664,0,0,0.12345679012345664,0,0)" xlink:href="#aI"/><use transform="matrix(0.12345679012345664,0,0,0.12345679012345664,29.629629629629594,0)" xlink:href="#az"/><use transform="matrix(0.12345679012345664,0,0,0.12345679012345664,44.32098765432094,0)" xlink:href="#aC"/><use transform="matrix(0.12345679012345664,0,0,0.12345679012345664,69.01234567901227,0)" xlink:href="#aJ"/><use transform="matrix(0.12345679012345664,0,0,0.12345679012345664,93.7037037037036,0)" xlink:href="#az"/><use transform="matrix(0.12345679012345664,0,0,0.12345679012345664,108.39506172839494,0)" xlink:href="#aw"/><use transform="matrix(0.12345679012345664,0,0,0.12345679012345664,133.08641975308626,0)" xlink:href="#aK"/></g><path d="M233-177c-1 41-23 64-60 70L243 0h-38l-65-103H63V0H30v-248c88 3 205-21 203 71zM63-129c60-2 137 13 137-47 0-61-80-42-137-45v92" id="aL"/><path d="M24-231v-30h32v30H24zM24 0v-190h32V0H24" id="aM"/><path d="M117-194c89-4 53 116 60 194h-32v-121c0-31-8-49-39-48C34-167 62-67 57 0H25l-1-190h30c1 10-1 24 2 32 11-22 29-35 61-36" id="aN"/><g id="f"><use transform="matrix(0.12345679012345664,0,0,0.12345679012345664,0,0)" xlink:href="#aL"/><use transform="matrix(0.12345679012345664,0,0,0.12345679012345664,31.97530864197527,0)" xlink:href="#av"/><use transform="matrix(0.12345679012345664,0,0,0.12345679012345664,56.6666666666666,0)" xlink:href="#aG"/><use transform="matrix(0.12345679012345664,0,0,0.12345679012345664,78.8888888888888,0)" xlink:href="#aC"/><use transform="matrix(0.12345679012345664,0,0,0.12345679012345664,103.58024691358013,0)" xlink:href="#az"/><use transform="matrix(0.12345679012345664,0,0,0.12345679012345664,118.27160493827147,0)" xlink:href="#aF"/><use transform="matrix(0.12345679012345664,0,0,0.12345679012345664,142.9629629629628,0)" xlink:href="#aM"/><use transform="matrix(0.12345679012345664,0,0,0.12345679012345664,152.71604938271588,0)" xlink:href="#aN"/><use transform="matrix(0.12345679012345664,0,0,0.12345679012345664,177.40740740740722,0)" xlink:href="#aJ"/></g><path d="M24 0v-261h32V0H24" id="aO"/><g id="g"><use transform="matrix(0.12345679012345664,0,0,0.12345679012345664,0,0)" xlink:href="#aA"/><use transform="matrix(0.12345679012345664,0,0,0.12345679012345664,29.629629629629594,0)" xlink:href="#aC"/><use transform="matrix(0.12345679012345664,0,0,0.12345679012345664,54.32098765432092,0)" xlink:href="#aG"/><use transform="matrix(0.12345679012345664,0,0,0.12345679012345664,76.54320987654312,0)" xlink:href="#aM"/><use transform="matrix(0.12345679012345664,0,0,0.12345679012345664,86.29629629629619,0)" xlink:href="#aw"/><use transform="matrix(0.12345679012345664,0,0,0.12345679012345664,110.98765432098752,0)" xlink:href="#aO"/></g><path d="M205 0l-28-72H64L36 0H1l101-248h38L239 0h-34zm-38-99l-47-123c-12 45-31 82-46 123h93" id="aP"/><use transform="matrix(0.12345679012345664,0,0,0.12345679012345664,0,0)" xlink:href="#aP" id="h"/><path d="M16-82v-28h88v28H16" id="aQ"/><path d="M101-234c-31-9-42 10-38 44h38v23H63V0H32v-167H5v-23h27c-7-52 17-82 69-68v24" id="aR"/><g id="i"><use transform="matrix(0.12345679012345664,0,0,0.12345679012345664,0,0)" xlink:href="#aO"/><use transform="matrix(0.12345679012345664,0,0,0.12345679012345664,9.753086419753075,0)" xlink:href="#aC"/><use transform="matrix(0.12345679012345664,0,0,0.12345679012345664,34.4444444444444,0)" xlink:href="#aN"/><use transform="matrix(0.12345679012345664,0,0,0.12345679012345664,59.135802469135726,0)" xlink:href="#aJ"/><use transform="matrix(0.12345679012345664,0,0,0.12345679012345664,83.82716049382705,0)" xlink:href="#aQ"/><use transform="matrix(0.12345679012345664,0,0,0.12345679012345664,98.51851851851839,0)" xlink:href="#aR"/><use transform="matrix(0.12345679012345664,0,0,0.12345679012345664,110.86419753086406,0)" xlink:href="#aC"/><use transform="matrix(0.12345679012345664,0,0,0.12345679012345664,135.5555555555554,0)" xlink:href="#az"/><use transform="matrix(0.12345679012345664,0,0,0.12345679012345664,150.24691358024674,0)" xlink:href="#aK"/></g><path d="M108 0H70L1-190h34L89-25l56-165h34" id="aS"/><g id="j"><use transform="matrix(0.12345679012345664,0,0,0.12345679012345664,0,0)" xlink:href="#aS"/><use transform="matrix(0.12345679012345664,0,0,0.12345679012345664,22.222222222222197,0)" xlink:href="#aM"/><use transform="matrix(0.12345679012345664,0,0,0.12345679012345664,31.97530864197527,0)" xlink:href="#aF"/><use transform="matrix(0.12345679012345664,0,0,0.12345679012345664,56.6666666666666,0)" xlink:href="#av"/><use transform="matrix(0.12345679012345664,0,0,0.12345679012345664,81.35802469135793,0)" xlink:href="#aC"/></g><path d="M179-190L93 31C79 59 56 82 12 73V49c39 6 53-20 64-50L1-190h34L92-34l54-156h33" id="aT"/><g id="k"><use transform="matrix(0.12345679012345664,0,0,0.12345679012345664,0,0)" xlink:href="#ay"/><use transform="matrix(0.12345679012345664,0,0,0.12345679012345664,24.69135802469133,0)" xlink:href="#aH"/><use transform="matrix(0.12345679012345664,0,0,0.12345679012345664,46.913580246913526,0)" xlink:href="#ay"/><use transform="matrix(0.12345679012345664,0,0,0.12345679012345664,71.60493827160485,0)" xlink:href="#aw"/><use transform="matrix(0.12345679012345664,0,0,0.12345679012345664,96.29629629629618,0)" xlink:href="#aO"/><use transform="matrix(0.12345679012345664,0,0,0.12345679012345664,106.04938271604925,0)" xlink:href="#aO"/><use transform="matrix(0.12345679012345664,0,0,0.12345679012345664,115.80246913580233,0)" xlink:href="#aT"/></g><g id="l"><use transform="matrix(0.12345679012345664,0,0,0.12345679012345664,0,0)" xlink:href="#aM"/><use transform="matrix(0.12345679012345664,0,0,0.12345679012345664,9.753086419753075,0)" xlink:href="#aN"/><use transform="matrix(0.12345679012345664,0,0,0.12345679012345664,34.4444444444444,0)" xlink:href="#ax"/><use transform="matrix(0.12345679012345664,0,0,0.12345679012345664,46.79012345679006,0)" xlink:href="#av"/><use transform="matrix(0.12345679012345664,0,0,0.12345679012345664,71.4814814814814,0)" xlink:href="#aN"/><use transform="matrix(0.12345679012345664,0,0,0.12345679012345664,96.17283950617272,0)" xlink:href="#aF"/><use transform="matrix(0.12345679012345664,0,0,0.12345679012345664,120.86419753086405,0)" xlink:href="#av"/><use transform="matrix(0.12345679012345664,0,0,0.12345679012345664,145.55555555555537,0)" xlink:href="#aF"/></g><g id="m"><use transform="matrix(0.12345679012345664,0,0,0.12345679012345664,0,0)" xlink:href="#aR"/><use transform="matrix(0.12345679012345664,0,0,0.12345679012345664,12.345679012345665,0)" xlink:href="#aC"/><use transform="matrix(0.12345679012345664,0,0,0.12345679012345664,37.037037037036995,0)" xlink:href="#az"/></g><g id="n"><use transform="matrix(0.12345679012345664,0,0,0.12345679012345664,0,0)" xlink:href="#ax"/><use transform="matrix(0.12345679012345664,0,0,0.12345679012345664,12.345679012345665,0)" xlink:href="#aB"/><use transform="matrix(0.12345679012345664,0,0,0.12345679012345664,37.037037037036995,0)" xlink:href="#av"/><use transform="matrix(0.12345679012345664,0,0,0.12345679012345664,61.72839506172832,0)" xlink:href="#aw"/><use transform="matrix(0.12345679012345664,0,0,0.12345679012345664,86.41975308641965,0)" xlink:href="#ax"/><use transform="matrix(0.12345679012345664,0,0,0.12345679012345664,98.76543209876532,0)" xlink:href="#az"/><use transform="matrix(0.12345679012345664,0,0,0.12345679012345664,113.45679012345666,0)" xlink:href="#aM"/><use transform="matrix(0.12345679012345664,0,0,0.12345679012345664,123.20987654320973,0)" xlink:href="#aG"/><use transform="matrix(0.12345679012345664,0,0,0.12345679012345664,145.43209876543193,0)" xlink:href="#aw"/><use transform="matrix(0.12345679012345664,0,0,0.12345679012345664,170.12345679012327,0)" xlink:href="#aO"/></g><g id="o"><use transform="matrix(0.12345679012345664,0,0,0.12345679012345664,0,0)" xlink:href="#aC"/><use transform="matrix(0.12345679012345664,0,0,0.12345679012345664,24.69135802469133,0)" xlink:href="#az"/></g><g id="p"><use transform="matrix(0.12345679012345664,0,0,0.12345679012345664,0,0)" xlink:href="#aG"/><use transform="matrix(0.12345679012345664,0,0,0.12345679012345664,22.222222222222197,0)" xlink:href="#aM"/><use transform="matrix(0.12345679012345664,0,0,0.12345679012345664,31.97530864197527,0)" xlink:href="#aN"/><use transform="matrix(0.12345679012345664,0,0,0.12345679012345664,56.6666666666666,0)" xlink:href="#av"/><use transform="matrix(0.12345679012345664,0,0,0.12345679012345664,81.35802469135793,0)" xlink:href="#aK"/><use transform="matrix(0.12345679012345664,0,0,0.12345679012345664,118.27160493827147,0)" xlink:href="#aw"/><use transform="matrix(0.12345679012345664,0,0,0.12345679012345664,142.9629629629628,0)" xlink:href="#ax"/><use transform="matrix(0.12345679012345664,0,0,0.12345679012345664,155.30864197530846,0)" xlink:href="#aM"/><use transform="matrix(0.12345679012345664,0,0,0.12345679012345664,165.06172839506155,0)" xlink:href="#aG"/></g><path d="M33 0v-38h34V0H33" id="aU"/><g id="q"><use transform="matrix(0.12345679012345664,0,0,0.12345679012345664,0,0)" xlink:href="#az"/><use transform="matrix(0.12345679012345664,0,0,0.12345679012345664,14.691358024691342,0)" xlink:href="#av"/><use transform="matrix(0.12345679012345664,0,0,0.12345679012345664,39.38271604938267,0)" xlink:href="#aO"/><use transform="matrix(0.12345679012345664,0,0,0.12345679012345664,49.13580246913575,0)" xlink:href="#av"/><use transform="matrix(0.12345679012345664,0,0,0.12345679012345664,73.82716049382708,0)" xlink:href="#aw"/><use transform="matrix(0.12345679012345664,0,0,0.12345679012345664,98.5185185185184,0)" xlink:href="#aH"/><use transform="matrix(0.12345679012345664,0,0,0.12345679012345664,120.7407407407406,0)" xlink:href="#av"/><use transform="matrix(0.12345679012345664,0,0,0.12345679012345664,145.43209876543193,0)" xlink:href="#aU"/></g><g id="r"><use transform="matrix(0.12345679012345664,0,0,0.12345679012345664,0,0)" xlink:href="#aH"/><use transform="matrix(0.12345679012345664,0,0,0.12345679012345664,22.222222222222197,0)" xlink:href="#aB"/><use transform="matrix(0.12345679012345664,0,0,0.12345679012345664,46.913580246913526,0)" xlink:href="#aC"/><use transform="matrix(0.12345679012345664,0,0,0.12345679012345664,71.60493827160485,0)" xlink:href="#az"/><use transform="matrix(0.12345679012345664,0,0,0.12345679012345664,86.29629629629619,0)" xlink:href="#ax"/><use transform="matrix(0.12345679012345664,0,0,0.12345679012345664,98.64197530864186,0)" xlink:href="#aQ"/><use transform="matrix(0.12345679012345664,0,0,0.12345679012345664,113.3333333333332,0)" xlink:href="#aR"/><use transform="matrix(0.12345679012345664,0,0,0.12345679012345664,125.67901234567887,0)" xlink:href="#aC"/><use transform="matrix(0.12345679012345664,0,0,0.12345679012345664,150.3703703703702,0)" xlink:href="#az"/><use transform="matrix(0.12345679012345664,0,0,0.12345679012345664,165.06172839506155,0)" xlink:href="#aK"/></g><path d="M68-38c1 34 0 65-14 84H32c9-13 17-26 17-46H33v-38h35" id="aV"/><g id="s"><use transform="matrix(0.12345679012345664,0,0,0.12345679012345664,0,0)" xlink:href="#aS"/><use transform="matrix(0.12345679012345664,0,0,0.12345679012345664,22.222222222222197,0)" xlink:href="#aM"/><use transform="matrix(0.12345679012345664,0,0,0.12345679012345664,31.97530864197527,0)" xlink:href="#aF"/><use transform="matrix(0.12345679012345664,0,0,0.12345679012345664,56.6666666666666,0)" xlink:href="#av"/><use transform="matrix(0.12345679012345664,0,0,0.12345679012345664,81.35802469135793,0)" xlink:href="#aC"/><use transform="matrix(0.12345679012345664,0,0,0.12345679012345664,106.04938271604925,0)" xlink:href="#aV"/></g><g id="t"><use transform="matrix(0.12345679012345664,0,0,0.12345679012345664,0,0)" xlink:href="#aC"/><use transform="matrix(0.12345679012345664,0,0,0.12345679012345664,24.69135802469133,0)" xlink:href="#aR"/><use transform="matrix(0.12345679012345664,0,0,0.12345679012345664,37.037037037036995,0)" xlink:href="#ax"/><use transform="matrix(0.12345679012345664,0,0,0.12345679012345664,49.38271604938266,0)" xlink:href="#av"/><use transform="matrix(0.12345679012345664,0,0,0.12345679012345664,74.07407407407399,0)" xlink:href="#aN"/></g><path d="M141 0L90-78 38 0H4l68-98-65-92h35l48 74 47-74h35l-64 92 68 98h-35" id="aW"/><path d="M115-194c55 1 70 41 70 98S169 2 115 4C84 4 66-9 55-30l1 105H24l-1-265h31l2 30c10-21 28-34 59-34zm-8 174c40 0 45-34 45-75s-6-73-45-74c-42 0-51 32-51 76 0 43 10 73 51 73" id="aX"/><g id="u"><use transform="matrix(0.12345679012345664,0,0,0.12345679012345664,0,0)" xlink:href="#av"/><use transform="matrix(0.12345679012345664,0,0,0.12345679012345664,24.69135802469133,0)" xlink:href="#aW"/><use transform="matrix(0.12345679012345664,0,0,0.12345679012345664,46.913580246913526,0)" xlink:href="#aX"/><use transform="matrix(0.12345679012345664,0,0,0.12345679012345664,71.60493827160485,0)" xlink:href="#av"/><use transform="matrix(0.12345679012345664,0,0,0.12345679012345664,96.29629629629618,0)" xlink:href="#az"/><use transform="matrix(0.12345679012345664,0,0,0.12345679012345664,110.98765432098752,0)" xlink:href="#aM"/><use transform="matrix(0.12345679012345664,0,0,0.12345679012345664,120.74074074074059,0)" xlink:href="#aK"/><use transform="matrix(0.12345679012345664,0,0,0.12345679012345664,157.65432098765413,0)" xlink:href="#av"/><use transform="matrix(0.12345679012345664,0,0,0.12345679012345664,182.34567901234547,0)" xlink:href="#aN"/><use transform="matrix(0.12345679012345664,0,0,0.12345679012345664,207.0370370370368,0)" xlink:href="#ax"/><use transform="matrix(0.12345679012345664,0,0,0.12345679012345664,219.38271604938248,0)" xlink:href="#aw"/><use transform="matrix(0.12345679012345664,0,0,0.12345679012345664,244.07407407407382,0)" xlink:href="#aO"/><use transform="matrix(0.12345679012345664,0,0,0.12345679012345664,253.8271604938269,0)" xlink:href="#aV"/></g><g id="v"><use transform="matrix(0.12345679012345664,0,0,0.12345679012345664,0,0)" xlink:href="#aF"/><use transform="matrix(0.12345679012345664,0,0,0.12345679012345664,24.69135802469133,0)" xlink:href="#av"/><use transform="matrix(0.12345679012345664,0,0,0.12345679012345664,49.38271604938266,0)" xlink:href="#aH"/><use transform="matrix(0.12345679012345664,0,0,0.12345679012345664,71.60493827160485,0)" xlink:href="#aM"/><use transform="matrix(0.12345679012345664,0,0,0.12345679012345664,81.35802469135793,0)" xlink:href="#aJ"/><use transform="matrix(0.12345679012345664,0,0,0.12345679012345664,106.04938271604925,0)" xlink:href="#aN"/><use transform="matrix(0.12345679012345664,0,0,0.12345679012345664,130.7407407407406,0)" xlink:href="#av"/><use transform="matrix(0.12345679012345664,0,0,0.12345679012345664,155.43209876543193,0)" xlink:href="#aF"/></g><g id="w"><use transform="matrix(0.12345679012345664,0,0,0.12345679012345664,0,0)" xlink:href="#ax"/><use transform="matrix(0.12345679012345664,0,0,0.12345679012345664,12.345679012345665,0)" xlink:href="#aC"/></g><g id="x"><use transform="matrix(0.12345679012345664,0,0,0.12345679012345664,0,0)" xlink:href="#av"/><use transform="matrix(0.12345679012345664,0,0,0.12345679012345664,24.69135802469133,0)" xlink:href="#aW"/><use transform="matrix(0.12345679012345664,0,0,0.12345679012345664,46.913580246913526,0)" xlink:href="#aX"/><use transform="matrix(0.12345679012345664,0,0,0.12345679012345664,71.60493827160485,0)" xlink:href="#aO"/><use transform="matrix(0.12345679012345664,0,0,0.12345679012345664,81.35802469135793,0)" xlink:href="#aC"/><use transform="matrix(0.12345679012345664,0,0,0.12345679012345664,106.04938271604925,0)" xlink:href="#az"/><use transform="matrix(0.12345679012345664,0,0,0.12345679012345664,120.74074074074059,0)" xlink:href="#av"/></g><g id="y"><use transform="matrix(0.12345679012345664,0,0,0.12345679012345664,0,0)" xlink:href="#aC"/><use transform="matrix(0.12345679012345664,0,0,0.12345679012345664,24.69135802469133,0)" xlink:href="#az"/></g><g id="z"><use transform="matrix(0.12345679012345664,0,0,0.12345679012345664,0,0)" xlink:href="#av"/><use transform="matrix(0.12345679012345664,0,0,0.12345679012345664,24.69135802469133,0)" xlink:href="#aW"/><use transform="matrix(0.12345679012345664,0,0,0.12345679012345664,46.913580246913526,0)" xlink:href="#aX"/><use transform="matrix(0.12345679012345664,0,0,0.12345679012345664,71.60493827160485,0)" xlink:href="#az"/><use transform="matrix(0.12345679012345664,0,0,0.12345679012345664,86.29629629629619,0)" xlink:href="#av"/><use transform="matrix(0.12345679012345664,0,0,0.12345679012345664,110.98765432098752,0)" xlink:href="#aH"/><use transform="matrix(0.12345679012345664,0,0,0.12345679012345664,133.2098765432097,0)" xlink:href="#aH"/></g><g id="A"><use transform="matrix(0.12345679012345664,0,0,0.12345679012345664,0,0)" xlink:href="#aw"/><use transform="matrix(0.12345679012345664,0,0,0.12345679012345664,24.69135802469133,0)" xlink:href="#aN"/></g><g id="B"><use transform="matrix(0.12345679012345664,0,0,0.12345679012345664,0,0)" xlink:href="#aM"/><use transform="matrix(0.12345679012345664,0,0,0.12345679012345664,9.753086419753075,0)" xlink:href="#aF"/><use transform="matrix(0.12345679012345664,0,0,0.12345679012345664,34.4444444444444,0)" xlink:href="#av"/><use transform="matrix(0.12345679012345664,0,0,0.12345679012345664,59.135802469135726,0)" xlink:href="#aw"/><use transform="matrix(0.12345679012345664,0,0,0.12345679012345664,83.82716049382705,0)" xlink:href="#aU"/></g><g id="C"><use transform="matrix(0.12345679012345664,0,0,0.12345679012345664,0,0)" xlink:href="#aH"/><use transform="matrix(0.12345679012345664,0,0,0.12345679012345664,22.222222222222197,0)" xlink:href="#av"/><use transform="matrix(0.12345679012345664,0,0,0.12345679012345664,46.913580246913526,0)" xlink:href="#az"/><use transform="matrix(0.12345679012345664,0,0,0.12345679012345664,61.604938271604865,0)" xlink:href="#aM"/><use transform="matrix(0.12345679012345664,0,0,0.12345679012345664,71.35802469135794,0)" xlink:href="#av"/><use transform="matrix(0.12345679012345664,0,0,0.12345679012345664,96.04938271604927,0)" xlink:href="#aH"/></g><g id="D"><use transform="matrix(0.12345679012345664,0,0,0.12345679012345664,0,0)" xlink:href="#aC"/><use transform="matrix(0.12345679012345664,0,0,0.12345679012345664,24.69135802469133,0)" xlink:href="#aR"/></g><g id="E"><use transform="matrix(0.12345679012345664,0,0,0.12345679012345664,0,0)" xlink:href="#aS"/><use transform="matrix(0.12345679012345664,0,0,0.12345679012345664,22.222222222222197,0)" xlink:href="#aM"/><use transform="matrix(0.12345679012345664,0,0,0.12345679012345664,31.97530864197527,0)" xlink:href="#aF"/><use transform="matrix(0.12345679012345664,0,0,0.12345679012345664,56.6666666666666,0)" xlink:href="#av"/><use transform="matrix(0.12345679012345664,0,0,0.12345679012345664,81.35802469135793,0)" xlink:href="#aC"/><use transform="matrix(0.12345679012345664,0,0,0.12345679012345664,106.04938271604925,0)" xlink:href="#aH"/></g><g id="F"><use transform="matrix(0.12345679012345664,0,0,0.12345679012345664,0,0)" xlink:href="#ax"/><use transform="matrix(0.12345679012345664,0,0,0.12345679012345664,12.345679012345665,0)" xlink:href="#aB"/><use transform="matrix(0.12345679012345664,0,0,0.12345679012345664,37.037037037036995,0)" xlink:href="#aw"/><use transform="matrix(0.12345679012345664,0,0,0.12345679012345664,61.72839506172832,0)" xlink:href="#ax"/></g><g id="G"><use transform="matrix(0.12345679012345664,0,0,0.12345679012345664,0,0)" xlink:href="#ax"/><use transform="matrix(0.12345679012345664,0,0,0.12345679012345664,12.345679012345665,0)" xlink:href="#av"/><use transform="matrix(0.12345679012345664,0,0,0.12345679012345664,37.037037037036995,0)" xlink:href="#aO"/><use transform="matrix(0.12345679012345664,0,0,0.12345679012345664,46.79012345679007,0)" xlink:href="#aO"/></g><g id="H"><use transform="matrix(0.12345679012345664,0,0,0.12345679012345664,0,0)" xlink:href="#aw"/><use transform="matrix(0.12345679012345664,0,0,0.12345679012345664,24.69135802469133,0)" xlink:href="#aN"/></g><g id="I"><use transform="matrix(0.12345679012345664,0,0,0.12345679012345664,0,0)" xlink:href="#aC"/><use transform="matrix(0.12345679012345664,0,0,0.12345679012345664,24.69135802469133,0)" xlink:href="#aS"/><use transform="matrix(0.12345679012345664,0,0,0.12345679012345664,46.913580246913526,0)" xlink:href="#av"/><use transform="matrix(0.12345679012345664,0,0,0.12345679012345664,71.60493827160485,0)" xlink:href="#az"/><use transform="matrix(0.12345679012345664,0,0,0.12345679012345664,86.29629629629619,0)" xlink:href="#aw"/><use transform="matrix(0.12345679012345664,0,0,0.12345679012345664,110.98765432098752,0)" xlink:href="#az"/><use transform="matrix(0.12345679012345664,0,0,0.12345679012345664,125.67901234567886,0)" xlink:href="#aG"/><use transform="matrix(0.12345679012345664,0,0,0.12345679012345664,147.90123456790104,0)" xlink:href="#aB"/><use transform="matrix(0.12345679012345664,0,0,0.12345679012345664,172.59259259259238,0)" xlink:href="#aM"/><use transform="matrix(0.12345679012345664,0,0,0.12345679012345664,182.34567901234544,0)" xlink:href="#aN"/><use transform="matrix(0.12345679012345664,0,0,0.12345679012345664,207.03703703703678,0)" xlink:href="#aJ"/></g><g id="J"><use transform="matrix(0.12345679012345664,0,0,0.12345679012345664,0,0)" xlink:href="#aH"/><use transform="matrix(0.12345679012345664,0,0,0.12345679012345664,22.222222222222197,0)" xlink:href="#ax"/><use transform="matrix(0.12345679012345664,0,0,0.12345679012345664,34.56790123456786,0)" xlink:href="#aC"/><use transform="matrix(0.12345679012345664,0,0,0.12345679012345664,59.259259259259196,0)" xlink:href="#az"/><use transform="matrix(0.12345679012345664,0,0,0.12345679012345664,73.95061728395054,0)" xlink:href="#aT"/></g><g id="K"><use transform="matrix(0.12345679012345664,0,0,0.12345679012345664,0,0)" xlink:href="#aH"/><use transform="matrix(0.12345679012345664,0,0,0.12345679012345664,22.222222222222197,0)" xlink:href="#aX"/><use transform="matrix(0.12345679012345664,0,0,0.12345679012345664,46.913580246913526,0)" xlink:href="#aO"/><use transform="matrix(0.12345679012345664,0,0,0.12345679012345664,56.6666666666666,0)" xlink:href="#aM"/><use transform="matrix(0.12345679012345664,0,0,0.12345679012345664,66.41975308641968,0)" xlink:href="#ax"/></g><g id="L"><use transform="matrix(0.12345679012345664,0,0,0.12345679012345664,0,0)" xlink:href="#aM"/><use transform="matrix(0.12345679012345664,0,0,0.12345679012345664,9.753086419753075,0)" xlink:href="#aN"/><use transform="matrix(0.12345679012345664,0,0,0.12345679012345664,34.4444444444444,0)" xlink:href="#ax"/><use transform="matrix(0.12345679012345664,0,0,0.12345679012345664,46.79012345679006,0)" xlink:href="#aC"/></g><g id="M"><use transform="matrix(0.12345679012345664,0,0,0.12345679012345664,0,0)" xlink:href="#aK"/><use transform="matrix(0.12345679012345664,0,0,0.12345679012345664,36.91358024691354,0)" xlink:href="#ay"/><use transform="matrix(0.12345679012345664,0,0,0.12345679012345664,61.604938271604865,0)" xlink:href="#aO"/><use transform="matrix(0.12345679012345664,0,0,0.12345679012345664,71.35802469135794,0)" xlink:href="#ax"/><use transform="matrix(0.12345679012345664,0,0,0.12345679012345664,83.70370370370361,0)" xlink:href="#aM"/><use transform="matrix(0.12345679012345664,0,0,0.12345679012345664,93.45679012345668,0)" xlink:href="#aX"/><use transform="matrix(0.12345679012345664,0,0,0.12345679012345664,118.14814814814801,0)" xlink:href="#aO"/><use transform="matrix(0.12345679012345664,0,0,0.12345679012345664,127.90123456790108,0)" xlink:href="#av"/></g><g id="N"><use transform="matrix(0.12345679012345664,0,0,0.12345679012345664,0,0)" xlink:href="#aX"/><use transform="matrix(0.12345679012345664,0,0,0.12345679012345664,24.69135802469133,0)" xlink:href="#aw"/><use transform="matrix(0.12345679012345664,0,0,0.12345679012345664,49.38271604938266,0)" xlink:href="#az"/><use transform="matrix(0.12345679012345664,0,0,0.12345679012345664,64.074074074074,0)" xlink:href="#ax"/><use transform="matrix(0.12345679012345664,0,0,0.12345679012345664,76.41975308641968,0)" xlink:href="#aH"/><use transform="matrix(0.12345679012345664,0,0,0.12345679012345664,98.64197530864188,0)" xlink:href="#aU"/></g><g id="O"><use transform="matrix(0.12345679012345664,0,0,0.12345679012345664,0,0)" xlink:href="#aO"/><use transform="matrix(0.12345679012345664,0,0,0.12345679012345664,9.753086419753075,0)" xlink:href="#aM"/><use transform="matrix(0.12345679012345664,0,0,0.12345679012345664,19.50617283950615,0)" xlink:href="#aS"/><use transform="matrix(0.12345679012345664,0,0,0.12345679012345664,41.72839506172835,0)" xlink:href="#av"/></g><g id="P"><use transform="matrix(0.12345679012345664,0,0,0.12345679012345664,0,0)" xlink:href="#av"/><use transform="matrix(0.12345679012345664,0,0,0.12345679012345664,24.69135802469133,0)" xlink:href="#aS"/><use transform="matrix(0.12345679012345664,0,0,0.12345679012345664,46.913580246913526,0)" xlink:href="#av"/><use transform="matrix(0.12345679012345664,0,0,0.12345679012345664,71.60493827160485,0)" xlink:href="#aN"/><use transform="matrix(0.12345679012345664,0,0,0.12345679012345664,96.29629629629618,0)" xlink:href="#ax"/></g><g id="Q"><use transform="matrix(0.12345679012345664,0,0,0.12345679012345664,0,0)" xlink:href="#aX"/><use transform="matrix(0.12345679012345664,0,0,0.12345679012345664,24.69135802469133,0)" xlink:href="#az"/><use transform="matrix(0.12345679012345664,0,0,0.12345679012345664,39.38271604938267,0)" xlink:href="#aC"/><use transform="matrix(0.12345679012345664,0,0,0.12345679012345664,64.074074074074,0)" xlink:href="#aF"/><use transform="matrix(0.12345679012345664,0,0,0.12345679012345664,88.76543209876533,0)" xlink:href="#ay"/><use transform="matrix(0.12345679012345664,0,0,0.12345679012345664,113.45679012345666,0)" xlink:href="#aG"/><use transform="matrix(0.12345679012345664,0,0,0.12345679012345664,135.67901234567884,0)" xlink:href="#ax"/><use transform="matrix(0.12345679012345664,0,0,0.12345679012345664,148.0246913580245,0)" xlink:href="#aM"/><use transform="matrix(0.12345679012345664,0,0,0.12345679012345664,157.7777777777776,0)" xlink:href="#aC"/><use transform="matrix(0.12345679012345664,0,0,0.12345679012345664,182.46913580246894,0)" xlink:href="#aN"/></g><g id="R"><use transform="matrix(0.12345679012345664,0,0,0.12345679012345664,0,0)" xlink:href="#ax"/><use transform="matrix(0.12345679012345664,0,0,0.12345679012345664,12.345679012345665,0)" xlink:href="#aB"/><use transform="matrix(0.12345679012345664,0,0,0.12345679012345664,37.037037037036995,0)" xlink:href="#aw"/><use transform="matrix(0.12345679012345664,0,0,0.12345679012345664,61.72839506172832,0)" xlink:href="#ax"/></g><g id="S"><use transform="matrix(0.12345679012345664,0,0,0.12345679012345664,0,0)" xlink:href="#aM"/><use transform="matrix(0.12345679012345664,0,0,0.12345679012345664,9.753086419753075,0)" xlink:href="#aH"/></g><g id="T"><use transform="matrix(0.12345679012345664,0,0,0.12345679012345664,0,0)" xlink:href="#aw"/><use transform="matrix(0.12345679012345664,0,0,0.12345679012345664,24.69135802469133,0)" xlink:href="#aM"/><use transform="matrix(0.12345679012345664,0,0,0.12345679012345664,34.4444444444444,0)" xlink:href="#az"/><use transform="matrix(0.12345679012345664,0,0,0.12345679012345664,49.13580246913574,0)" xlink:href="#av"/><use transform="matrix(0.12345679012345664,0,0,0.12345679012345664,73.82716049382707,0)" xlink:href="#aF"/></g><g id="U"><use transform="matrix(0.12345679012345664,0,0,0.12345679012345664,0,0)" xlink:href="#aM"/><use transform="matrix(0.12345679012345664,0,0,0.12345679012345664,9.753086419753075,0)" xlink:href="#aN"/></g><g id="V"><use transform="matrix(0.12345679012345664,0,0,0.12345679012345664,0,0)" xlink:href="#az"/><use transform="matrix(0.12345679012345664,0,0,0.12345679012345664,14.691358024691342,0)" xlink:href="#av"/><use transform="matrix(0.12345679012345664,0,0,0.12345679012345664,39.38271604938267,0)" xlink:href="#aw"/><use transform="matrix(0.12345679012345664,0,0,0.12345679012345664,64.074074074074,0)" xlink:href="#aO"/><use transform="matrix(0.12345679012345664,0,0,0.12345679012345664,73.82716049382708,0)" xlink:href="#aQ"/><use transform="matrix(0.12345679012345664,0,0,0.12345679012345664,88.51851851851842,0)" xlink:href="#ax"/><use transform="matrix(0.12345679012345664,0,0,0.12345679012345664,100.86419753086409,0)" xlink:href="#aM"/><use transform="matrix(0.12345679012345664,0,0,0.12345679012345664,110.61728395061716,0)" xlink:href="#aK"/><use transform="matrix(0.12345679012345664,0,0,0.12345679012345664,147.53086419753072,0)" xlink:href="#av"/></g><g id="W"><use transform="matrix(0.12345679012345664,0,0,0.12345679012345664,0,0)" xlink:href="#ax"/><use transform="matrix(0.12345679012345664,0,0,0.12345679012345664,12.345679012345665,0)" xlink:href="#aC"/></g><use transform="matrix(0.12345679012345664,0,0,0.12345679012345664,0,0)" xlink:href="#aw" id="X"/><g id="Y"><use transform="matrix(0.12345679012345664,0,0,0.12345679012345664,0,0)" xlink:href="#aO"/><use transform="matrix(0.12345679012345664,0,0,0.12345679012345664,9.753086419753075,0)" xlink:href="#aM"/><use transform="matrix(0.12345679012345664,0,0,0.12345679012345664,19.50617283950615,0)" xlink:href="#aS"/><use transform="matrix(0.12345679012345664,0,0,0.12345679012345664,41.72839506172835,0)" xlink:href="#av"/></g><g id="Z"><use transform="matrix(0.12345679012345664,0,0,0.12345679012345664,0,0)" xlink:href="#aw"/><use transform="matrix(0.12345679012345664,0,0,0.12345679012345664,24.69135802469133,0)" xlink:href="#ay"/><use transform="matrix(0.12345679012345664,0,0,0.12345679012345664,49.38271604938266,0)" xlink:href="#aF"/><use transform="matrix(0.12345679012345664,0,0,0.12345679012345664,74.07407407407399,0)" xlink:href="#aM"/><use transform="matrix(0.12345679012345664,0,0,0.12345679012345664,83.82716049382707,0)" xlink:href="#av"/><use transform="matrix(0.12345679012345664,0,0,0.12345679012345664,108.51851851851839,0)" xlink:href="#aN"/><use transform="matrix(0.12345679012345664,0,0,0.12345679012345664,133.20987654320973,0)" xlink:href="#aG"/><use transform="matrix(0.12345679012345664,0,0,0.12345679012345664,155.43209876543193,0)" xlink:href="#av"/><use transform="matrix(0.12345679012345664,0,0,0.12345679012345664,180.12345679012327,0)" xlink:href="#aU"/></g><g id="aa"><use transform="matrix(0.12345679012345664,0,0,0.12345679012345664,0,0)" xlink:href="#aX"/><use transform="matrix(0.12345679012345664,0,0,0.12345679012345664,24.69135802469133,0)" xlink:href="#az"/><use transform="matrix(0.12345679012345664,0,0,0.12345679012345664,39.38271604938267,0)" xlink:href="#av"/><use transform="matrix(0.12345679012345664,0,0,0.12345679012345664,64.074074074074,0)" xlink:href="#aQ"/><use transform="matrix(0.12345679012345664,0,0,0.12345679012345664,78.76543209876534,0)" xlink:href="#az"/><use transform="matrix(0.12345679012345664,0,0,0.12345679012345664,93.45679012345668,0)" xlink:href="#av"/><use transform="matrix(0.12345679012345664,0,0,0.12345679012345664,118.14814814814801,0)" xlink:href="#aG"/><use transform="matrix(0.12345679012345664,0,0,0.12345679012345664,140.3703703703702,0)" xlink:href="#aC"/><use transform="matrix(0.12345679012345664,0,0,0.12345679012345664,165.06172839506155,0)" xlink:href="#az"/><use transform="matrix(0.12345679012345664,0,0,0.12345679012345664,179.7530864197529,0)" xlink:href="#aF"/><use transform="matrix(0.12345679012345664,0,0,0.12345679012345664,204.44444444444423,0)" xlink:href="#av"/><use transform="matrix(0.12345679012345664,0,0,0.12345679012345664,229.13580246913557,0)" xlink:href="#aF"/></g><g id="ab"><use transform="matrix(0.12345679012345664,0,0,0.12345679012345664,0,0)" xlink:href="#aH"/><use transform="matrix(0.12345679012345664,0,0,0.12345679012345664,22.222222222222197,0)" xlink:href="#aG"/><use transform="matrix(0.12345679012345664,0,0,0.12345679012345664,44.44444444444439,0)" xlink:href="#aB"/><use transform="matrix(0.12345679012345664,0,0,0.12345679012345664,69.13580246913573,0)" xlink:href="#av"/><use transform="matrix(0.12345679012345664,0,0,0.12345679012345664,93.82716049382705,0)" xlink:href="#aF"/><use transform="matrix(0.12345679012345664,0,0,0.12345679012345664,118.51851851851838,0)" xlink:href="#ay"/><use transform="matrix(0.12345679012345664,0,0,0.12345679012345664,143.2098765432097,0)" xlink:href="#aO"/><use transform="matrix(0.12345679012345664,0,0,0.12345679012345664,152.96296296296276,0)" xlink:href="#av"/><use transform="matrix(0.12345679012345664,0,0,0.12345679012345664,177.6543209876541,0)" xlink:href="#aF"/></g><g id="ac"><use transform="matrix(0.12345679012345664,0,0,0.12345679012345664,0,0)" xlink:href="#aM"/><use transform="matrix(0.12345679012345664,0,0,0.12345679012345664,9.753086419753075,0)" xlink:href="#aN"/></g><g id="ad"><use transform="matrix(0.12345679012345664,0,0,0.12345679012345664,0,0)" xlink:href="#aX"/><use transform="matrix(0.12345679012345664,0,0,0.12345679012345664,24.69135802469133,0)" xlink:href="#av"/><use transform="matrix(0.12345679012345664,0,0,0.12345679012345664,49.38271604938266,0)" xlink:href="#az"/><use transform="matrix(0.12345679012345664,0,0,0.12345679012345664,64.074074074074,0)" xlink:href="#aX"/><use transform="matrix(0.12345679012345664,0,0,0.12345679012345664,88.76543209876533,0)" xlink:href="#av"/><use transform="matrix(0.12345679012345664,0,0,0.12345679012345664,113.45679012345666,0)" xlink:href="#ax"/><use transform="matrix(0.12345679012345664,0,0,0.12345679012345664,125.80246913580233,0)" xlink:href="#ay"/><use transform="matrix(0.12345679012345664,0,0,0.12345679012345664,150.49382716049365,0)" xlink:href="#aM"/><use transform="matrix(0.12345679012345664,0,0,0.12345679012345664,160.2469135802467,0)" xlink:href="#ax"/><use transform="matrix(0.12345679012345664,0,0,0.12345679012345664,172.59259259259238,0)" xlink:href="#aT"/><use transform="matrix(0.12345679012345664,0,0,0.12345679012345664,191.48148148148124,0)" xlink:href="#aU"/></g><g id="ae"><use transform="matrix(0.12345679012345664,0,0,0.12345679012345664,0,0)" xlink:href="#az"/><use transform="matrix(0.12345679012345664,0,0,0.12345679012345664,14.691358024691342,0)" xlink:href="#av"/><use transform="matrix(0.12345679012345664,0,0,0.12345679012345664,39.38271604938267,0)" xlink:href="#aG"/><use transform="matrix(0.12345679012345664,0,0,0.12345679012345664,61.604938271604865,0)" xlink:href="#aC"/><use transform="matrix(0.12345679012345664,0,0,0.12345679012345664,86.29629629629619,0)" xlink:href="#az"/><use transform="matrix(0.12345679012345664,0,0,0.12345679012345664,100.98765432098753,0)" xlink:href="#aF"/><use transform="matrix(0.12345679012345664,0,0,0.12345679012345664,125.67901234567886,0)" xlink:href="#av"/><use transform="matrix(0.12345679012345664,0,0,0.12345679012345664,150.37037037037018,0)" xlink:href="#aF"/></g><g id="af"><use transform="matrix(0.12345679012345664,0,0,0.12345679012345664,0,0)" xlink:href="#aO"/><use transform="matrix(0.12345679012345664,0,0,0.12345679012345664,9.753086419753075,0)" xlink:href="#aw"/><use transform="matrix(0.12345679012345664,0,0,0.12345679012345664,34.4444444444444,0)" xlink:href="#ax"/><use transform="matrix(0.12345679012345664,0,0,0.12345679012345664,46.79012345679006,0)" xlink:href="#av"/><use transform="matrix(0.12345679012345664,0,0,0.12345679012345664,71.4814814814814,0)" xlink:href="#az"/></g><g id="ag"><use transform="matrix(0.12345679012345664,0,0,0.12345679012345664,0,0)" xlink:href="#aS"/><use transform="matrix(0.12345679012345664,0,0,0.12345679012345664,22.222222222222197,0)" xlink:href="#aM"/><use transform="matrix(0.12345679012345664,0,0,0.12345679012345664,31.97530864197527,0)" xlink:href="#av"/><use transform="matrix(0.12345679012345664,0,0,0.12345679012345664,56.6666666666666,0)" xlink:href="#aD"/><use transform="matrix(0.12345679012345664,0,0,0.12345679012345664,88.64197530864188,0)" xlink:href="#aM"/><use transform="matrix(0.12345679012345664,0,0,0.12345679012345664,98.39506172839495,0)" xlink:href="#aN"/><use transform="matrix(0.12345679012345664,0,0,0.12345679012345664,123.08641975308628,0)" xlink:href="#aJ"/><use transform="matrix(0.12345679012345664,0,0,0.12345679012345664,147.7777777777776,0)" xlink:href="#aU"/></g><g id="ah"><use transform="matrix(0.12345679012345664,0,0,0.12345679012345664,0,0)" xlink:href="#aA"/><use transform="matrix(0.12345679012345664,0,0,0.12345679012345664,29.629629629629594,0)" xlink:href="#av"/><use transform="matrix(0.12345679012345664,0,0,0.12345679012345664,54.32098765432092,0)" xlink:href="#az"/><use transform="matrix(0.12345679012345664,0,0,0.12345679012345664,69.01234567901227,0)" xlink:href="#aM"/><use transform="matrix(0.12345679012345664,0,0,0.12345679012345664,78.76543209876534,0)" xlink:href="#av"/><use transform="matrix(0.12345679012345664,0,0,0.12345679012345664,103.45679012345667,0)" xlink:href="#aH"/></g><g id="ai"><use transform="matrix(0.12345679012345664,0,0,0.12345679012345664,0,0)" xlink:href="#aG"/><use transform="matrix(0.12345679012345664,0,0,0.12345679012345664,22.222222222222197,0)" xlink:href="#aC"/><use transform="matrix(0.12345679012345664,0,0,0.12345679012345664,46.913580246913526,0)" xlink:href="#aO"/><use transform="matrix(0.12345679012345664,0,0,0.12345679012345664,56.6666666666666,0)" xlink:href="#aO"/><use transform="matrix(0.12345679012345664,0,0,0.12345679012345664,66.41975308641968,0)" xlink:href="#av"/><use transform="matrix(0.12345679012345664,0,0,0.12345679012345664,91.111111111111,0)" xlink:href="#aG"/><use transform="matrix(0.12345679012345664,0,0,0.12345679012345664,113.3333333333332,0)" xlink:href="#ax"/><use transform="matrix(0.12345679012345664,0,0,0.12345679012345664,125.67901234567887,0)" xlink:href="#aM"/><use transform="matrix(0.12345679012345664,0,0,0.12345679012345664,135.43209876543193,0)" xlink:href="#aC"/><use transform="matrix(0.12345679012345664,0,0,0.12345679012345664,160.12345679012327,0)" xlink:href="#aN"/></g><g id="aj"><use transform="matrix(0.12345679012345664,0,0,0.12345679012345664,0,0)" xlink:href="#aM"/><use transform="matrix(0.12345679012345664,0,0,0.12345679012345664,9.753086419753075,0)" xlink:href="#aN"/><use transform="matrix(0.12345679012345664,0,0,0.12345679012345664,34.4444444444444,0)" xlink:href="#aF"/><use transform="matrix(0.12345679012345664,0,0,0.12345679012345664,59.135802469135726,0)" xlink:href="#aM"/><use transform="matrix(0.12345679012345664,0,0,0.12345679012345664,68.8888888888888,0)" xlink:href="#aS"/><use transform="matrix(0.12345679012345664,0,0,0.12345679012345664,91.111111111111,0)" xlink:href="#aM"/><use transform="matrix(0.12345679012345664,0,0,0.12345679012345664,100.86419753086408,0)" xlink:href="#aF"/><use transform="matrix(0.12345679012345664,0,0,0.12345679012345664,125.5555555555554,0)" xlink:href="#ay"/><use transform="matrix(0.12345679012345664,0,0,0.12345679012345664,150.24691358024674,0)" xlink:href="#aw"/><use transform="matrix(0.12345679012345664,0,0,0.12345679012345664,174.93827160493808,0)" xlink:href="#aO"/><use transform="matrix(0.12345679012345664,0,0,0.12345679012345664,184.69135802469117,0)" xlink:href="#aO"/><use transform="matrix(0.12345679012345664,0,0,0.12345679012345664,194.44444444444423,0)" xlink:href="#aT"/></g><g id="ak"><use transform="matrix(0.12345679012345664,0,0,0.12345679012345664,0,0)" xlink:href="#aR"/><use transform="matrix(0.12345679012345664,0,0,0.12345679012345664,12.345679012345665,0)" xlink:href="#aC"/><use transform="matrix(0.12345679012345664,0,0,0.12345679012345664,37.037037037036995,0)" xlink:href="#aG"/><use transform="matrix(0.12345679012345664,0,0,0.12345679012345664,59.259259259259196,0)" xlink:href="#ay"/><use transform="matrix(0.12345679012345664,0,0,0.12345679012345664,83.95061728395052,0)" xlink:href="#aH"/></g><g id="al"><use transform="matrix(0.12345679012345664,0,0,0.12345679012345664,0,0)" xlink:href="#aC"/><use transform="matrix(0.12345679012345664,0,0,0.12345679012345664,24.69135802469133,0)" xlink:href="#aN"/></g><path d="M145-31C134-9 116 4 85 4 32 4 16-35 15-94c0-59 17-99 70-100 32-1 48 14 60 33 0-11-1-24 2-32h30l-1 268h-32zM93-21c41 0 51-33 51-76s-8-73-50-73c-40 0-46 35-46 75s5 74 45 74" id="aY"/><g id="am"><use transform="matrix(0.12345679012345664,0,0,0.12345679012345664,0,0)" xlink:href="#ay"/><use transform="matrix(0.12345679012345664,0,0,0.12345679012345664,24.69135802469133,0)" xlink:href="#aN"/><use transform="matrix(0.12345679012345664,0,0,0.12345679012345664,49.38271604938266,0)" xlink:href="#aM"/><use transform="matrix(0.12345679012345664,0,0,0.12345679012345664,59.13580246913573,0)" xlink:href="#aY"/><use transform="matrix(0.12345679012345664,0,0,0.12345679012345664,83.82716049382707,0)" xlink:href="#ay"/><use transform="matrix(0.12345679012345664,0,0,0.12345679012345664,108.51851851851839,0)" xlink:href="#av"/></g><g id="an"><use transform="matrix(0.12345679012345664,0,0,0.12345679012345664,0,0)" xlink:href="#aF"/><use transform="matrix(0.12345679012345664,0,0,0.12345679012345664,24.69135802469133,0)" xlink:href="#aM"/><use transform="matrix(0.12345679012345664,0,0,0.12345679012345664,34.4444444444444,0)" xlink:href="#aH"/><use transform="matrix(0.12345679012345664,0,0,0.12345679012345664,56.6666666666666,0)" xlink:href="#ax"/><use transform="matrix(0.12345679012345664,0,0,0.12345679012345664,69.01234567901227,0)" xlink:href="#aM"/><use transform="matrix(0.12345679012345664,0,0,0.12345679012345664,78.76543209876534,0)" xlink:href="#aN"/><use transform="matrix(0.12345679012345664,0,0,0.12345679012345664,103.45679012345667,0)" xlink:href="#aG"/><use transform="matrix(0.12345679012345664,0,0,0.12345679012345664,125.67901234567887,0)" xlink:href="#ax"/></g><g id="ao"><use transform="matrix(0.12345679012345664,0,0,0.12345679012345664,0,0)" xlink:href="#aH"/><use transform="matrix(0.12345679012345664,0,0,0.12345679012345664,22.222222222222197,0)" xlink:href="#ax"/><use transform="matrix(0.12345679012345664,0,0,0.12345679012345664,34.56790123456786,0)" xlink:href="#aC"/><use transform="matrix(0.12345679012345664,0,0,0.12345679012345664,59.259259259259196,0)" xlink:href="#az"/><use transform="matrix(0.12345679012345664,0,0,0.12345679012345664,73.95061728395054,0)" xlink:href="#aT"/><use transform="matrix(0.12345679012345664,0,0,0.12345679012345664,92.8395061728394,0)" xlink:href="#aU"/></g><g id="ap"><use transform="matrix(0.12345679012345664,0,0,0.12345679012345664,0,0)" xlink:href="#aR"/><use transform="matrix(0.12345679012345664,0,0,0.12345679012345664,12.345679012345665,0)" xlink:href="#aC"/><use transform="matrix(0.12345679012345664,0,0,0.12345679012345664,37.037037037036995,0)" xlink:href="#az"/></g><g id="aq"><use transform="matrix(0.12345679012345664,0,0,0.12345679012345664,0,0)" xlink:href="#av"/><use transform="matrix(0.12345679012345664,0,0,0.12345679012345664,24.69135802469133,0)" xlink:href="#aW"/><use transform="matrix(0.12345679012345664,0,0,0.12345679012345664,46.913580246913526,0)" xlink:href="#aX"/><use transform="matrix(0.12345679012345664,0,0,0.12345679012345664,71.60493827160485,0)" xlink:href="#az"/><use transform="matrix(0.12345679012345664,0,0,0.12345679012345664,86.29629629629619,0)" xlink:href="#av"/><use transform="matrix(0.12345679012345664,0,0,0.12345679012345664,110.98765432098752,0)" xlink:href="#aH"/><use transform="matrix(0.12345679012345664,0,0,0.12345679012345664,133.2098765432097,0)" xlink:href="#aH"/><use transform="matrix(0.12345679012345664,0,0,0.12345679012345664,155.4320987654319,0)" xlink:href="#aM"/><use transform="matrix(0.12345679012345664,0,0,0.12345679012345664,165.185185185185,0)" xlink:href="#aC"/><use transform="matrix(0.12345679012345664,0,0,0.12345679012345664,189.87654320987633,0)" xlink:href="#aN"/></g><g id="ar"><use transform="matrix(0.12345679012345664,0,0,0.12345679012345664,0,0)" xlink:href="#aw"/><use transform="matrix(0.12345679012345664,0,0,0.12345679012345664,24.69135802469133,0)" xlink:href="#aN"/><use transform="matrix(0.12345679012345664,0,0,0.12345679012345664,49.38271604938266,0)" xlink:href="#aF"/></g><g id="as"><use transform="matrix(0.12345679012345664,0,0,0.12345679012345664,0,0)" xlink:href="#aG"/><use transform="matrix(0.12345679012345664,0,0,0.12345679012345664,22.222222222222197,0)" xlink:href="#aC"/><use transform="matrix(0.12345679012345664,0,0,0.12345679012345664,46.913580246913526,0)" xlink:href="#aK"/><use transform="matrix(0.12345679012345664,0,0,0.12345679012345664,83.82716049382707,0)" xlink:href="#aK"/><use transform="matrix(0.12345679012345664,0,0,0.12345679012345664,120.7407407407406,0)" xlink:href="#ay"/><use transform="matrix(0.12345679012345664,0,0,0.12345679012345664,145.43209876543193,0)" xlink:href="#aN"/><use transform="matrix(0.12345679012345664,0,0,0.12345679012345664,170.12345679012327,0)" xlink:href="#aM"/><use transform="matrix(0.12345679012345664,0,0,0.12345679012345664,179.87654320987633,0)" xlink:href="#aG"/><use transform="matrix(0.12345679012345664,0,0,0.12345679012345664,202.09876543209853,0)" xlink:href="#aw"/><use transform="matrix(0.12345679012345664,0,0,0.12345679012345664,226.79012345678987,0)" xlink:href="#ax"/><use transform="matrix(0.12345679012345664,0,0,0.12345679012345664,239.13580246913554,0)" xlink:href="#aM"/><use transform="matrix(0.12345679012345664,0,0,0.12345679012345664,248.88888888888863,0)" xlink:href="#aC"/><use transform="matrix(0.12345679012345664,0,0,0.12345679012345664,273.58024691357997,0)" xlink:href="#aN"/></g><g id="at"><use transform="matrix(0.12345679012345664,0,0,0.12345679012345664,0,0)" xlink:href="#aC"/><use transform="matrix(0.12345679012345664,0,0,0.12345679012345664,24.69135802469133,0)" xlink:href="#aN"/><use transform="matrix(0.12345679012345664,0,0,0.12345679012345664,49.38271604938266,0)" xlink:href="#aO"/><use transform="matrix(0.12345679012345664,0,0,0.12345679012345664,59.13580246913573,0)" xlink:href="#aM"/><use transform="matrix(0.12345679012345664,0,0,0.12345679012345664,68.8888888888888,0)" xlink:href="#aN"/><use transform="matrix(0.12345679012345664,0,0,0.12345679012345664,93.58024691358013,0)" xlink:href="#av"/><use transform="matrix(0.12345679012345664,0,0,0.12345679012345664,118.27160493827145,0)" xlink:href="#aU"/></g></defs></g></svg>
